<?xml version="1.0" standalone="no"?>
<!DOCTYPE svg PUBLIC "-//W3C//DTD SVG 20010904//EN"
 "http://www.w3.org/TR/2001/REC-SVG-20010904/DTD/svg10.dtd">
<svg version="1.0" xmlns="http://www.w3.org/2000/svg"
 width="700.000000pt" height="700.000000pt" viewBox="0 0 700.000000 700.000000"
 preserveAspectRatio="xMidYMid meet">
<metadata>
Created by potrace 1.11, written by Peter Selinger 2001-2013
</metadata>
<g transform="translate(0.000000,700.000000) scale(0.100000,-0.100000)"
fill="#000000" stroke="none">
<path d="M3752 5956 c-44 -16 -100 -69 -120 -115 -23 -55 -23 -511 1 -561 27
-56 62 -90 114 -110 80 -30 148 -17 217 43 53 46 62 96 61 363 l-1 240 -27 47
c-53 90 -151 127 -245 93z"/>
<path d="M2114 5291 c-113 -51 -160 -182 -104 -290 27 -53 357 -377 404 -396
96 -40 215 6 264 102 36 70 30 151 -15 211 -50 67 -349 355 -383 370 -52 22
-119 24 -166 3z"/>
<path d="M5365 5297 c-16 -5 -43 -20 -60 -32 -54 -41 -345 -339 -361 -370 -22
-43 -29 -116 -14 -160 17 -53 73 -111 126 -131 50 -19 124 -15 171 10 51 26
378 362 395 405 41 105 -14 234 -117 275 -31 13 -107 14 -140 3z"/>
<path d="M3778 4745 c-2 -2 -39 -5 -83 -9 -318 -23 -615 -177 -842 -437 l-32
-37 -73 19 c-137 35 -265 48 -428 44 -336 -8 -608 -94 -895 -284 -22 -14 -42
-28 -45 -31 -3 -3 -25 -21 -50 -40 -95 -73 -217 -196 -282 -285 -4 -5 -18 -23
-31 -40 -44 -56 -116 -180 -161 -275 -38 -82 -58 -138 -106 -295 -22 -72 -42
-241 -45 -370 -3 -186 9 -295 51 -453 90 -336 241 -580 518 -837 12 -11 55
-45 96 -76 193 -144 397 -236 655 -294 24 -6 70 -13 160 -24 39 -5 484 -9 990
-9 771 -1 936 2 1019 15 431 65 799 355 962 759 67 164 94 315 89 499 -4 136
-6 154 -25 238 -41 184 -116 339 -247 516 -10 13 -7 34 16 109 60 193 69 400
25 607 -8 39 -14 73 -14 77 0 4 -14 45 -31 90 -94 256 -272 478 -505 629 -148
97 -364 171 -537 185 -128 10 -147 11 -149 9z m199 -465 c132 -23 279 -95 387
-187 59 -51 166 -179 166 -199 0 -7 4 -14 8 -16 9 -4 60 -115 73 -161 33 -112
47 -353 21 -379 -6 -6 -28 0 -58 15 -52 26 -207 83 -252 92 -121 25 -202 33
-322 30 -74 -2 -147 -6 -161 -9 -23 -5 -31 3 -86 87 -114 173 -282 344 -453
457 l-70 46 33 31 c102 97 291 185 427 200 30 3 56 7 58 8 7 6 176 -5 229 -15z
m-1375 -399 c242 -51 449 -162 623 -336 146 -147 252 -320 310 -507 15 -49 30
-88 32 -88 3 0 29 13 57 29 117 66 263 99 419 95 122 -3 212 -25 327 -81 108
-52 151 -83 231 -163 151 -153 229 -337 235 -555 4 -164 -23 -286 -96 -420
-124 -229 -352 -388 -609 -425 -86 -13 -1907 -9 -1976 4 -232 43 -443 141
-601 278 -27 24 -55 48 -62 53 -26 21 -150 172 -184 225 -91 140 -162 327
-185 487 -9 61 -10 316 -1 368 63 372 265 679 578 876 146 92 341 161 496 175
38 3 71 8 73 10 11 10 252 -8 333 -25z"/>
<path d="M5651 3688 c-174 -30 -225 -263 -81 -363 51 -35 101 -41 350 -39 225
2 249 6 307 50 86 66 92 226 11 300 -58 53 -77 57 -318 58 -124 1 -245 -2
-269 -6z"/>
</g>
</svg>
