<svg xmlns="http://www.w3.org/2000/svg" xmlns:xlink="http://www.w3.org/1999/xlink" aria-hidden="true" style="position:absolute;width:0;height:0;overflow:hidden" version="1.1">
    <defs>
        <symbol id="CloudFogSun" viewBox="0 0 32 32">
            <title>
                CloudFogSun
            </title>
            <path d="M29.715 14.857h-2.285c-0.631 0-1.143-0.511-1.143-1.143s0.512-1.143 1.143-1.143h2.285c0.631 0 1.143 0.512 1.143 1.143 0 0.632-0.512 1.143-1.143 1.143zM25.225 7.249c-0.446 0.446-1.17 0.446-1.616 0s-0.446-1.17 0-1.616l1.616-1.616c0.446-0.446 1.17-0.446 1.616 0s0.446 1.17 0 1.616l-1.616 1.616zM23.54 16.168c0.521 0.622 0.932 1.337 1.208 2.117h-2.507c-0.791-1.365-2.264-2.286-3.955-2.286-0.915 0-1.762 0.274-2.477 0.738-0.704-3.038-3.414-5.31-6.666-5.31-3.787 0-6.857 3.071-6.857 6.858h-2.285c0-5.050 4.093-9.143 9.143-9.143 0.898 0 1.765 0.133 2.585 0.374 1.254-1.616 3.211-2.66 5.415-2.66 3.787 0 6.857 3.070 6.857 6.857 0.001 0.866-0.167 1.691-0.46 2.455zM17.143 9.143c-1.264 0-2.409 0.513-3.236 1.344 1.337 0.82 2.449 1.973 3.217 3.345 0.379-0.065 0.764-0.117 1.162-0.117 1.214 0 2.353 0.319 3.343 0.873 0.055-0.282 0.085-0.574 0.085-0.873 0-2.525-2.047-4.571-4.571-4.571zM17.143 4.571c-0.631 0-1.143-0.511-1.143-1.143v-2.285c0-0.631 0.512-1.143 1.143-1.143s1.143 0.512 1.143 1.143v2.285c0 0.631-0.512 1.143-1.143 1.143zM9.062 7.249l-1.616-1.616c-0.446-0.446-0.446-1.17 0-1.616s1.17-0.446 1.616 0l1.616 1.616c0.446 0.446 0.446 1.17 0 1.616s-1.169 0.446-1.616 0zM1.144 20.571h22.857c0.631 0 1.142 0.512 1.142 1.143s-0.512 1.143-1.142 1.143h-22.857c-0.631 0-1.143-0.512-1.143-1.143s0.511-1.143 1.143-1.143zM1.144 25.143h22.857c0.631 0 1.142 0.512 1.142 1.143s-0.512 1.143-1.142 1.143h-22.857c-0.631 0-1.143-0.512-1.143-1.143 0-0.632 0.511-1.143 1.143-1.143zM1.144 29.714h22.857c0.631 0 1.142 0.512 1.142 1.143s-0.512 1.143-1.142 1.143h-22.857c-0.631 0-1.143-0.512-1.143-1.143s0.511-1.143 1.143-1.143z"/>
        </symbol>
        <symbol id="Wind" viewBox="0 0 32 32">
            <title>
                Wind
            </title>
            <path d="M27.637 16.97h-2.182c-0.804 0-1.455-0.651-1.455-1.454s0.651-1.455 1.455-1.455h2.182c0.803 0 1.455-0.652 1.455-1.454 0-0.804-0.652-1.455-1.455-1.455s-1.455-0.652-1.455-1.455 0.651-1.455 1.455-1.455c0.1 0 0.197 0.010 0.292 0.030 2.27 0.153 4.070 2.024 4.070 4.334 0 2.409-1.953 4.363-4.363 4.363zM20.363 14.061h-16c-0.803 0-1.454 0.652-1.454 1.455s0.651 1.454 1.454 1.454h16c2.41 0 4.364 1.954 4.364 4.364 0 2.31-1.8 4.181-4.070 4.334-0.095 0.020-0.193 0.030-0.294 0.030-0.803 0-1.455-0.652-1.455-1.455s0.652-1.455 1.455-1.455c0.804 0 1.455-0.652 1.455-1.455s-0.651-1.455-1.455-1.455h-16c-2.41 0-4.364-1.954-4.364-4.364 0-2.309 1.8-4.18 4.070-4.334 0.095-0.019 0.193-0.029 0.293-0.029h16c0.804 0 1.455-0.652 1.455-1.455s-0.651-1.455-1.455-1.455c-0.803 0-1.455-0.651-1.455-1.455s0.652-1.455 1.455-1.455c0.101 0 0.199 0.011 0.294 0.030 2.27 0.153 4.070 2.024 4.070 4.334 0 2.409-1.954 4.364-4.364 4.364z"/>
        </symbol>
        <symbol id="Umbrella" viewBox="0 0 32 32">
            <title>
                Umbrella
            </title>
            <path d="M28.001 13.455c-2.209 0-4.001 0.977-4.001 2.181 0-1.205-1.79-2.181-4.001-2.181-1.355 0-2.549 0.37-3.272 0.932v6.34h0.727v2.91c0 0.803 0.651 1.455 1.455 1.455s1.453-0.652 1.453-1.455 0.652-1.455 1.455-1.455c0.804 0 1.455 0.652 1.455 1.455 0 2.41-1.954 4.363-4.363 4.363-2.41 0-4.364-1.954-4.364-4.364v-2.91h0.727v-6.34c-0.723-0.562-1.917-0.932-3.273-0.932-2.209 0-3.999 0.977-3.999 2.181 0-1.205-1.792-2.181-4.001-2.181s-4.001 0.977-4.001 2.181c0-5.222 7.165-11.636 16.001-11.636s15.999 6.415 15.999 11.636c0-1.205-1.79-2.181-3.999-2.181z"/>
        </symbol>
        <symbol id="Tornado" viewBox="0 0 32 32">
            <title>
                Tornado
            </title>
            <path d="M30.476 5.714h-28.952c-0.841 0-1.524-0.683-1.524-1.523s0.683-1.524 1.524-1.524h28.952c0.841 0 1.524 0.683 1.524 1.524s-0.682 1.523-1.524 1.523zM3.048 8.762h22.857c0.841 0 1.524 0.683 1.524 1.524s-0.683 1.523-1.524 1.523h-22.857c-0.841 0-1.524-0.683-1.524-1.523 0-0.842 0.683-1.524 1.524-1.524zM12.19 14.857h16.762c0.841 0 1.523 0.683 1.523 1.523s-0.682 1.524-1.523 1.524h-16.762c-0.841 0-1.523-0.683-1.523-1.524s0.682-1.523 1.523-1.523zM13.714 27.047h4.571c0.841 0 1.524 0.683 1.524 1.523s-0.683 1.524-1.524 1.524h-4.571c-0.841 0-1.524-0.683-1.524-1.524s0.683-1.523 1.524-1.523zM14.476 22.476c0-0.841 0.683-1.523 1.524-1.523h10.666c0.841 0 1.524 0.683 1.524 1.523s-0.683 1.524-1.524 1.524h-10.666c-0.841 0-1.524-0.682-1.524-1.524z"/>
        </symbol>
        <symbol id="Thermometer" viewBox="0 0 32 32">
            <title>
                Thermometer
            </title>
            <path d="M16.445 32c-3.928 0-7.111-3.184-7.111-7.111 0-1.8 0.675-3.44 1.777-4.692v-14.863c0-2.945 2.389-5.333 5.334-5.333s5.333 2.388 5.333 5.333v14.863c1.102 1.253 1.778 2.892 1.778 4.692 0 3.928-3.184 7.111-7.111 7.111zM18.222 21.826v-16.493c0-0.981-0.797-1.778-1.777-1.778s-1.778 0.797-1.778 1.778v16.493c-1.058 0.616-1.778 1.75-1.778 3.063 0 1.964 1.592 3.555 3.556 3.555s3.555-1.591 3.555-3.555c0-1.313-0.72-2.447-1.778-3.063z"/>
        </symbol>
        <symbol id="ThermometerZero" viewBox="0 0 32 32">
            <title>
                ThermometerZero
            </title>
            <path d="M16.445 32c-3.927 0-7.111-3.184-7.111-7.111 0-1.8 0.675-3.44 1.778-4.692v-14.863c0-2.945 2.389-5.333 5.333-5.333s5.334 2.388 5.334 5.333v14.863c1.102 1.253 1.777 2.892 1.777 4.692 0 3.928-3.184 7.111-7.111 7.111zM18.223 21.826v-16.493c0-0.981-0.797-1.778-1.778-1.778s-1.777 0.797-1.777 1.778v16.493c-1.058 0.616-1.778 1.75-1.778 3.063 0 1.964 1.592 3.555 3.555 3.555s3.556-1.591 3.556-3.555c0-1.313-0.72-2.447-1.778-3.063zM16.445 27.556c-1.472 0-2.666-1.195-2.666-2.667s1.194-2.667 2.666-2.667c1.473 0 2.667 1.195 2.667 2.667s-1.194 2.667-2.667 2.667z"/>
        </symbol>
        <symbol id="Thermometer100" viewBox="0 0 32 32">
            <title>
                Thermometer100
            </title>
            <path d="M16.445 32c-3.928 0-7.112-3.184-7.112-7.112 0-1.8 0.676-3.439 1.778-4.693v-14.861c0-2.945 2.388-5.334 5.334-5.334 2.944 0 5.334 2.389 5.334 5.334v14.861c1.102 1.253 1.776 2.893 1.776 4.693 0 3.928-3.183 7.112-7.11 7.112zM18.223 21.826v-16.492c0-0.981-0.797-1.778-1.778-1.778s-1.778 0.797-1.778 1.778v16.492c-1.057 0.616-1.778 1.75-1.778 3.063 0 1.964 1.592 3.556 3.556 3.556s3.556-1.592 3.556-3.556c0-1.312-0.721-2.447-1.778-3.063zM16.445 27.555c-1.472 0-2.667-1.195-2.667-2.667 0-1.16 0.745-2.135 1.778-2.503v-17.052c0-0.492 0.397-0.889 0.889-0.889s0.889 0.397 0.889 0.889v17.052c1.033 0.368 1.778 1.344 1.778 2.503 0 1.472-1.195 2.667-2.667 2.667z"/>
        </symbol>
        <symbol id="Thermometer75" viewBox="0 0 32 32">
            <title>
                Thermometer75
            </title>
            <path d="M16.445 32c-3.928 0-7.112-3.184-7.112-7.112 0-1.8 0.676-3.439 1.778-4.693v-14.861c0-2.945 2.389-5.334 5.334-5.334s5.333 2.389 5.333 5.334v14.861c1.103 1.253 1.777 2.893 1.777 4.693 0 3.928-3.183 7.112-7.11 7.112zM18.223 21.826v-16.492c0-0.981-0.797-1.778-1.778-1.778s-1.778 0.797-1.778 1.778v16.492c-1.058 0.616-1.778 1.75-1.778 3.063 0 1.964 1.592 3.556 3.556 3.556s3.555-1.592 3.555-3.556c0-1.312-0.72-2.447-1.777-3.063zM16.445 27.555c-1.472 0-2.667-1.195-2.667-2.667 0-1.16 0.745-2.135 1.778-2.503v-13.552h1.778v13.552c1.033 0.368 1.778 1.344 1.778 2.503 0 1.472-1.195 2.667-2.667 2.667z"/>
        </symbol>
        <symbol id="Thermometer50" viewBox="0 0 32 32">
            <title>
                Thermometer50
            </title>
            <path d="M16.445 32c-3.928 0-7.112-3.184-7.112-7.112 0-1.8 0.676-3.439 1.778-4.693v-14.861c0-2.945 2.388-5.334 5.334-5.334 2.944 0 5.332 2.389 5.332 5.334v14.861c1.104 1.253 1.778 2.893 1.778 4.693 0 3.928-3.183 7.112-7.11 7.112zM18.223 21.826v-16.492c0-0.981-0.797-1.778-1.778-1.778s-1.778 0.797-1.778 1.778v16.492c-1.059 0.616-1.778 1.75-1.778 3.063 0 1.964 1.592 3.556 3.556 3.556s3.556-1.592 3.556-3.556c0-1.312-0.721-2.447-1.778-3.063zM16.445 27.555c-1.472 0-2.667-1.195-2.667-2.667 0-1.16 0.745-2.135 1.778-2.503v-9.108h1.778v9.108c1.033 0.368 1.778 1.344 1.778 2.503 0 1.472-1.195 2.667-2.667 2.667z"/>
        </symbol>
        <symbol id="Thermometer25" viewBox="0 0 32 32">
            <title>
                Thermometer25
            </title>
            <path d="M16.444 32c-3.928 0-7.111-3.183-7.111-7.111 0-1.8 0.674-3.44 1.778-4.693v-14.863c0-2.945 2.388-5.333 5.332-5.333 2.946 0 5.334 2.388 5.334 5.333v14.863c1.102 1.254 1.778 2.893 1.778 4.693 0 3.928-3.185 7.111-7.112 7.111zM18.222 21.827v-16.493c0-0.982-0.796-1.778-1.778-1.778s-1.778 0.797-1.778 1.778v16.493c-1.057 0.616-1.776 1.75-1.776 3.063 0 1.964 1.591 3.554 3.554 3.554s3.556-1.59 3.556-3.554c0-1.312-0.719-2.447-1.778-3.063zM16.444 27.557c-1.472 0-2.665-1.195-2.665-2.667 0-1.16 0.743-2.135 1.776-2.504v-4.609h1.778v4.609c1.033 0.368 1.778 1.344 1.778 2.504 0 1.472-1.195 2.667-2.667 2.667z"/>
        </symbol>
        <symbol id="Sunset" viewBox="0 0 32 32">
            <title>
                Sunset
            </title>
            <path d="M30.667 21.334h-2.667c-0.736 0-1.333-0.597-1.333-1.334s0.597-1.334 1.333-1.334h2.667c0.736 0 1.333 0.597 1.333 1.334s-0.596 1.334-1.333 1.334zM25.429 12.458c-0.521 0.521-1.366 0.521-1.886 0s-0.521-1.365 0-1.886l1.886-1.886c0.52-0.52 1.365-0.52 1.885 0s0.521 1.365 0 1.886l-1.885 1.886zM23.536 22.666h-2.921c0.455-0.785 0.719-1.694 0.719-2.666 0-2.946-2.388-5.333-5.333-5.333s-5.334 2.388-5.334 5.333c0 0.973 0.265 1.882 0.72 2.666h-2.922c-0.295-0.835-0.465-1.73-0.465-2.666 0-4.419 3.582-8 8-8s8 3.581 8 8c0 0.936-0.169 1.832-0.465 2.666zM16.001 9.333c-0.737 0-1.334-0.597-1.334-1.333v-2.666c0-0.736 0.597-1.333 1.334-1.333s1.334 0.597 1.334 1.333v2.666c0 0.736-0.598 1.333-1.334 1.333zM6.572 12.458l-1.886-1.886c-0.521-0.521-0.521-1.365 0-1.886s1.365-0.52 1.886 0l1.886 1.886c0.521 0.521 0.521 1.365 0 1.886s-1.364 0.521-1.886 0zM5.334 20c0 0.736-0.597 1.334-1.333 1.334h-2.667c-0.736 0-1.333-0.597-1.333-1.334s0.597-1.334 1.333-1.334h2.667c0.736 0 1.333 0.597 1.333 1.334zM16.001 17.333c0.368 0 0.667 0.299 0.667 0.667v2.552l1.69-1.69c0.261-0.261 0.682-0.261 0.943 0s0.261 0.682 0 0.943l-2.828 2.828c-0.261 0.261-0.682 0.261-0.943 0l-2.828-2.828c-0.261-0.261-0.261-0.682 0-0.943s0.682-0.261 0.943 0l1.69 1.69v-2.552c0-0.368 0.298-0.667 0.667-0.667zM9.334 25.333h13.333c0.736 0 1.334 0.597 1.334 1.334s-0.597 1.333-1.334 1.333h-13.333c-0.736 0-1.333-0.597-1.333-1.333s0.597-1.334 1.334-1.334z"/>
        </symbol>
        <symbol id="Sunrise" viewBox="0 0 32 32">
            <title>
                Sunrise
            </title>
            <path d="M9.791 10.572l-1.886-1.886c-0.521-0.52-1.365-0.52-1.886 0s-0.521 1.365 0 1.886l1.886 1.886c0.521 0.521 1.365 0.521 1.886 0s0.521-1.364 0-1.886zM32 18.666h-2.666c-0.736 0-1.333 0.597-1.333 1.334s0.597 1.334 1.333 1.334h2.666c0.737 0 1.333-0.597 1.333-1.334s-0.596-1.334-1.334-1.334zM5.334 18.666h-2.667c-0.736 0-1.333 0.597-1.333 1.334s0.597 1.334 1.333 1.334h2.667c0.736 0 1.333-0.597 1.333-1.334s-0.598-1.334-1.333-1.334zM24 25.333h-13.334c-0.736 0-1.333 0.597-1.333 1.334s0.597 1.333 1.333 1.333h13.334c0.736 0 1.334-0.597 1.334-1.333s-0.597-1.334-1.334-1.334zM28.647 8.686c-0.52-0.52-1.366-0.52-1.886 0l-1.886 1.886c-0.52 0.521-0.52 1.365 0 1.886s1.366 0.521 1.886 0l1.886-1.886c0.52-0.521 0.52-1.365 0-1.886zM17.334 9.333c0.736 0 1.333-0.597 1.333-1.333v-2.666c0-0.736-0.597-1.333-1.333-1.333-0.737 0-1.334 0.597-1.334 1.333v2.666c0 0.736 0.597 1.333 1.334 1.333zM17.334 12c-4.419 0-8 3.581-8 8 0 0.936 0.169 1.832 0.465 2.666h2.921c-0.455-0.785-0.719-1.694-0.719-2.666 0-2.946 2.388-5.333 5.334-5.333s5.333 2.388 5.333 5.333c0 0.973-0.264 1.882-0.719 2.666h2.921c0.295-0.835 0.465-1.73 0.465-2.666 0-4.419-3.582-8-8-8zM17.334 22.833c0.368 0 0.666-0.298 0.666-0.667v-2.552l1.691 1.69c0.26 0.261 0.682 0.261 0.943 0s0.26-0.682 0-0.943l-2.828-2.828c-0.261-0.261-0.683-0.261-0.943 0l-2.828 2.828c-0.261 0.261-0.261 0.682 0 0.943s0.682 0.261 0.943 0l1.69-1.69v2.552c0 0.369 0.298 0.667 0.667 0.667z"/>
        </symbol>
        <symbol id="Sun" viewBox="0 0 32 32">
            <title>
                Sun
            </title>
            <path d="M32 17.333h-2.666c-0.737 0-1.334-0.597-1.334-1.333s0.597-1.333 1.334-1.333h2.666c0.737 0 1.333 0.597 1.333 1.334s-0.596 1.333-1.334 1.333zM26.762 8.458c-0.521 0.521-1.366 0.521-1.886 0-0.521-0.521-0.521-1.365 0-1.886l1.886-1.886c0.519-0.521 1.365-0.521 1.886 0 0.519 0.521 0.519 1.365 0 1.886l-1.886 1.886zM17.334 24c-4.419 0-8.001-3.582-8.001-8s3.582-8 8.001-8c4.419 0 8 3.582 8 8s-3.581 8-8 8zM17.334 10.667c-2.946 0-5.334 2.388-5.334 5.333s2.389 5.333 5.334 5.333 5.333-2.388 5.333-5.333c0-2.946-2.387-5.333-5.333-5.333zM17.334 5.333c-0.737 0-1.334-0.597-1.334-1.333v-2.666c0-0.736 0.597-1.333 1.334-1.333s1.334 0.597 1.334 1.333v2.666c0 0.736-0.598 1.333-1.334 1.333zM7.905 8.458l-1.886-1.886c-0.521-0.521-0.521-1.365 0-1.886s1.365-0.521 1.886 0l1.886 1.886c0.521 0.521 0.521 1.365 0 1.886s-1.365 0.521-1.886 0zM6.667 16c0 0.736-0.597 1.333-1.333 1.333h-2.667c-0.736 0-1.333-0.597-1.333-1.333s0.597-1.333 1.333-1.333h2.667c0.737 0 1.333 0.597 1.333 1.334zM7.905 23.542c0.521-0.52 1.365-0.52 1.886 0s0.521 1.366 0 1.886l-1.886 1.886c-0.521 0.521-1.365 0.521-1.886 0s-0.521-1.365 0-1.886l1.886-1.886zM17.334 26.667c0.736 0 1.334 0.597 1.334 1.333v2.667c0 0.736-0.597 1.334-1.334 1.334s-1.334-0.597-1.334-1.334v-2.667c0-0.736 0.597-1.333 1.334-1.333zM26.762 23.542l1.886 1.886c0.519 0.521 0.519 1.366 0 1.886-0.521 0.521-1.366 0.521-1.886 0l-1.886-1.886c-0.521-0.52-0.521-1.365 0-1.886 0.519-0.521 1.364-0.521 1.886 0z"/>
        </symbol>
        <symbol id="SunLower" viewBox="0 0 32 32">
            <title>
                SunLower
            </title>
            <path d="M28.89 14.228c-0.712 0.711-1.868 0.711-2.578 0-0.712-0.712-0.712-1.867 0-2.578l2.578-2.578c0.71-0.712 1.866-0.712 2.578 0 0.71 0.711 0.71 1.866 0 2.578l-2.578 2.578zM22.308 20.893c-1.262-2.177-3.61-3.646-6.307-3.646s-5.047 1.468-6.307 3.646h-3.993c1.502-4.246 5.54-7.292 10.301-7.292 4.759 0 8.798 3.046 10.301 7.292h-3.993zM16.001 9.958c-1.007 0-1.823-0.817-1.823-1.823v-3.646c0-1.006 0.816-1.822 1.823-1.822s1.823 0.816 1.823 1.822v3.646c0 1.006-0.817 1.823-1.823 1.823zM3.112 14.228l-2.578-2.578c-0.712-0.712-0.712-1.867 0-2.578s1.866-0.712 2.578 0l2.578 2.578c0.712 0.711 0.712 1.866 0 2.578s-1.865 0.711-2.578 0zM6.886 24.537h18.228c1.007 0 1.823 0.817 1.823 1.823s-0.816 1.823-1.823 1.823h-18.228c-1.006 0-1.823-0.816-1.823-1.823 0-1.005 0.817-1.823 1.823-1.823z"/>
        </symbol>
        <symbol id="SunLow" viewBox="0 0 32 32">
            <title>
                SunLow
            </title>
            <path d="M30.666 21.334h-2.666c-0.736 0-1.334-0.597-1.334-1.334s0.597-1.334 1.334-1.334h2.666c0.737 0 1.334 0.597 1.334 1.334s-0.596 1.334-1.334 1.334zM25.428 12.458c-0.521 0.521-1.366 0.521-1.886 0s-0.52-1.365 0-1.886l1.886-1.886c0.52-0.52 1.365-0.52 1.886 0s0.52 1.365 0 1.886l-1.886 1.886zM23.536 22.666h-2.921c0.455-0.784 0.719-1.693 0.719-2.666 0-2.946-2.388-5.334-5.333-5.334s-5.333 2.388-5.333 5.334c0 0.973 0.264 1.882 0.719 2.666h-2.921c-0.296-0.835-0.465-1.73-0.465-2.666 0-4.419 3.582-8 8-8s8 3.581 8 8c0 0.936-0.169 1.831-0.465 2.666zM16 9.333c-0.736 0-1.333-0.597-1.333-1.333v-2.666c0-0.736 0.597-1.333 1.333-1.333s1.334 0.597 1.334 1.333v2.666c0 0.737-0.597 1.333-1.334 1.333zM6.572 12.458l-1.886-1.886c-0.521-0.521-0.521-1.365 0-1.886s1.365-0.52 1.886 0l1.886 1.886c0.52 0.521 0.52 1.365 0 1.886s-1.365 0.521-1.886 0zM5.333 20.001c0 0.736-0.597 1.334-1.333 1.334h-2.667c-0.736 0-1.333-0.597-1.333-1.334s0.597-1.334 1.333-1.334h2.667c0.735 0 1.333 0.597 1.333 1.334zM9.333 25.333h13.334c0.736 0 1.334 0.597 1.334 1.334s-0.597 1.334-1.334 1.334h-13.334c-0.736 0-1.333-0.597-1.333-1.334 0-0.735 0.597-1.334 1.333-1.334z"/>
        </symbol>
        <symbol id="Snowflake" viewBox="0 0 32 32">
            <title>
                Snowflake
            </title>
            <path d="M28.427 11.643l-2.611 1.507c0.251 0.909 0.397 1.862 0.397 2.85 0 0.989-0.145 1.942-0.397 2.851l2.611 1.507c1.275 0.737 1.712 2.367 0.975 3.643-0.736 1.275-2.366 1.712-3.642 0.975l-2.606-1.504c-1.337 1.36-3.036 2.355-4.941 2.846v3.016c0 1.472-1.195 2.667-2.667 2.667s-2.667-1.195-2.667-2.667v-3.016c-1.904-0.491-3.604-1.486-4.941-2.846l-2.606 1.504c-1.276 0.737-2.907 0.3-3.642-0.975-0.737-1.276-0.3-2.907 0.975-3.643l2.611-1.507c-0.252-0.909-0.397-1.862-0.397-2.851 0-0.988 0.144-1.94 0.397-2.85l-2.611-1.507c-1.275-0.737-1.712-2.367-0.975-3.643 0.736-1.275 2.366-1.712 3.642-0.975l2.606 1.504c1.336-1.36 3.036-2.355 4.941-2.846v-3.016c0-1.472 1.195-2.667 2.667-2.667s2.667 1.195 2.667 2.667v3.016c1.904 0.491 3.603 1.486 4.941 2.846l2.606-1.504c1.276-0.737 2.907-0.3 3.642 0.975 0.737 1.276 0.3 2.907-0.975 3.643zM15.547 10.667c-2.946 0-5.334 2.388-5.334 5.333 0 2.946 2.388 5.334 5.334 5.334s5.333-2.388 5.333-5.334c0-2.944-2.387-5.333-5.333-5.333z"/>
        </symbol>
        <symbol id="Shades" viewBox="0 0 32 32">
            <title>
                Shades
            </title>
            <path d="M30.856 16.38h-1.143v2.286c0 1.893-1.535 3.428-3.429 3.428h-4.571c-1.894 0-3.428-1.535-3.428-3.428l-1.132-4.525c-0.395-0.027-0.796-0.047-1.19-0.047-0.379 0-0.754 0.022-1.12 0.054l-1.13 4.518c0 1.893-1.535 3.428-3.429 3.428h-4.571c-1.894 0-3.429-1.535-3.429-3.428v-2.286h-1.142c-0.632 0-1.143-0.511-1.143-1.143v-1.143c0-0.631 0.511-1.142 1.143-1.142h1.353c0.471-1.329 1.728-2.286 3.218-2.286h5.714c1.080 0 2.032 0.509 2.661 1.29 0.6-0.087 1.23-0.147 1.876-0.147 0.657 0 1.319 0.053 1.966 0.123 0.629-0.767 1.572-1.266 2.641-1.266h5.714c1.492 0 2.747 0.957 3.219 2.286h1.353c0.632 0 1.143 0.511 1.143 1.142v1.143c-0.001 0.632-0.512 1.143-1.144 1.143zM9.53 12.563c-0.334-0.335-0.878-0.335-1.213 0l-3.636 3.637c-0.335 0.335-0.335 0.878 0 1.213 0.334 0.335 0.878 0.335 1.212 0l3.637-3.637c0.335-0.335 0.335-0.878 0-1.213zM25.531 12.563c-0.335-0.335-0.878-0.335-1.213 0l-3.637 3.637c-0.335 0.335-0.335 0.878 0 1.213s0.878 0.335 1.213 0l3.637-3.637c0.335-0.335 0.335-0.878 0-1.213z"/>
        </symbol>
        <symbol id="Moon" viewBox="0 0 32 32">
            <title>
                Moon
            </title>
            <path d="M16.001 32c-8.837 0-16.001-7.164-16.001-15.999 0-8.837 7.164-16.001 16.001-16.001 1.007 0 1.988 0.104 2.943 0.283-0.176 0.768-0.277 1.564-0.277 2.384 0 5.891 4.777 10.667 10.668 10.667 0.82 0 1.616-0.101 2.384-0.277 0.177 0.956 0.281 1.936 0.281 2.944 0 8.836-7.164 15.999-15.999 15.999zM13.616 5.61c-4.742 1.084-8.282 5.319-8.282 10.391 0 5.89 4.775 10.667 10.667 10.667 5.070 0 9.305-3.54 10.389-8.282-6.473-1.205-11.569-6.302-12.774-12.775z"/>
        </symbol>
        <symbol id="MoonWaxingGibbous" viewBox="0 0 32 32">
            <title>
                MoonWaxingGibbous
            </title>
            <path d="M17.333 32.001c-8.837 0-16-7.164-16-16.001 0-8.836 7.163-16 16-16s16 7.164 16 16c0 8.837-7.163 16.001-16 16.001zM17.333 5.334c-2.946 0-5.334 4.775-5.334 10.666 0 5.892 2.388 10.667 5.334 10.667 5.892 0 10.667-4.775 10.667-10.667 0-5.89-4.775-10.666-10.667-10.666z"/>
        </symbol>
        <symbol id="MoonWaxingCrescent" viewBox="0 0 32 32">
            <title>
                MoonWaxingCrescent
            </title>
            <path d="M15.999 32.001c8.837 0 16.001-7.165 16.001-15.999 0-8.837-7.164-16.002-16.001-16.002-8.836 0-15.999 7.165-15.999 16.002 0 8.834 7.164 15.999 15.999 15.999zM13.334 5.683c0.853-0.219 1.744-0.349 2.666-0.349 5.891 0 10.667 4.777 10.667 10.668 0 5.889-4.775 10.665-10.667 10.665-0.921 0-1.812-0.131-2.666-0.349 4.598-1.184 8-5.349 8-10.316 0-4.97-3.402-9.132-8-10.319z"/>
        </symbol>
        <symbol id="MoonWaningGibbous" viewBox="0 0 32 32">
            <title>
                MoonWaningGibbous
            </title>
            <path d="M16.001 31.999c8.834 0 15.999-7.162 15.999-15.999s-7.165-16-15.999-16c-8.837 0-16.001 7.163-16.001 16s7.165 15.999 16.001 15.999zM16.001 5.335c2.946 0 5.331 4.774 5.331 10.665s-2.386 10.665-5.331 10.665c-5.891 0-10.668-4.774-10.668-10.665s4.776-10.665 10.668-10.665z"/>
        </symbol>
        <symbol id="MoonWaningCrescent" viewBox="0 0 32 32">
            <title>
                MoonWaningCrescent
            </title>
            <path d="M16 31.999c-8.835 0-16-7.162-16-15.999s7.165-16 16-16c8.837 0 16 7.163 16 16s-7.163 15.999-16 15.999zM18.667 5.684c-0.855-0.221-1.744-0.349-2.667-0.349-5.89 0-10.666 4.774-10.666 10.665s4.776 10.665 10.666 10.665c0.923 0 1.812-0.128 2.667-0.349-4.598-1.185-7.999-5.347-7.999-10.316s3.402-9.131 7.999-10.316z"/>
        </symbol>
        <symbol id="MoonNew" viewBox="0 0 32 32">
            <title>
                MoonNew
            </title>
            <path d="M16.001 32c-8.837 0-16.001-7.164-16.001-15.999 0-8.837 7.164-16.001 16.001-16.001 8.836 0 15.999 7.164 15.999 16.001 0 8.836-7.164 15.999-15.999 15.999z"/>
        </symbol>
        <symbol id="MoonLastQuarter" viewBox="0 0 32 32">
            <title>
                MoonLastQuarter
            </title>
            <path d="M16.001 31.999c8.834 0 15.999-7.162 15.999-16 0-8.835-7.165-15.999-15.999-15.999-8.837 0-16.001 7.163-16.001 15.999 0 8.838 7.165 16 16.001 16zM16.001 26.665c-5.891 0-10.668-4.774-10.668-10.666 0-5.89 4.776-10.665 10.668-10.665v21.331z"/>
        </symbol>
        <symbol id="MoonFull" viewBox="0 0 32 32">
            <title>
                MoonFull
            </title>
            <path d="M16.001 31.999c-8.837 0-16.001-7.163-16.001-16 0-8.835 7.165-15.999 16.001-15.999s15.999 7.163 15.999 15.999c0 8.837-7.162 16-15.999 16zM16.001 5.334c-5.891 0-10.668 4.775-10.668 10.665 0 5.891 4.776 10.666 10.668 10.666s10.665-4.775 10.665-10.666c0-5.89-4.774-10.665-10.665-10.665z"/>
        </symbol>
        <symbol id="MoonFirstQuarter" viewBox="0 0 32 32">
            <title>
                MoonFirstQuarter
            </title>
            <path d="M15.999 32c-8.837 0-15.999-7.164-15.999-15.999 0-8.837 7.162-16.001 15.999-16.001s16.001 7.164 16.001 16.001c0 8.836-7.164 15.999-16.001 15.999zM15.999 26.667c5.891 0 10.667-4.777 10.667-10.667 0-5.891-4.775-10.667-10.667-10.667v21.333z"/>
        </symbol>
        <symbol id="DegreesFahrenheit" viewBox="0 0 32 32">
            <title>
                DegreesFahrenheit
            </title>
            <path d="M28.234 12.862c0-2.079-1.686-3.765-3.765-3.765s-3.765 1.686-3.765 3.765v3.764h7.53v3.765h-7.53v7.529h-3.763v-15.058c0-4.159 3.371-7.529 7.529-7.529s7.53 3.371 7.53 7.529h-3.766zM6.587 18.509c-3.638 0-6.587-2.95-6.587-6.588s2.949-6.588 6.587-6.588c3.638 0 6.589 2.95 6.589 6.588s-2.95 6.588-6.589 6.588zM6.587 9.097c-1.559 0-2.823 1.265-2.823 2.824s1.264 2.824 2.823 2.824c1.56 0 2.824-1.265 2.824-2.824s-1.263-2.824-2.824-2.824z"/>
        </symbol>
        <symbol id="DegreesCelcius" viewBox="0 0 32 32">
            <title>
                DegreesCelcius
            </title>
            <path d="M24.471 9.098c-2.079 0-3.765 1.686-3.765 3.765v7.53c0 2.079 1.686 3.764 3.765 3.764s3.765-1.685 3.765-3.764h3.763c0 4.159-3.37 7.53-7.529 7.53s-7.531-3.371-7.531-7.53v-7.53c0-4.159 3.372-7.53 7.531-7.53s7.529 3.371 7.529 7.53h-3.763c0-2.079-1.686-3.765-3.765-3.765zM6.587 18.51c-3.638 0-6.587-2.95-6.587-6.588s2.949-6.588 6.587-6.588c3.639 0 6.589 2.95 6.589 6.588s-2.949 6.588-6.589 6.588zM6.587 9.098c-1.559 0-2.823 1.265-2.823 2.824s1.264 2.824 2.823 2.824c1.56 0 2.824-1.265 2.824-2.824s-1.263-2.824-2.824-2.824z"/>
        </symbol>
        <symbol id="Compass" viewBox="0 0 32 32">
            <title>
                Compass
            </title>
            <path d="M17.333 32.001c-8.838 0-16-7.164-16-16.001 0-8.836 7.162-16 16-16 8.836 0 16 7.164 16 16 0 8.837-7.164 16.001-16 16.001zM17.333 4.572c-6.313 0-11.43 5.117-11.43 11.428 0 6.312 5.117 11.429 11.43 11.429 6.311 0 11.428-5.117 11.428-11.429 0-6.311-5.117-11.428-11.428-11.428zM20.898 18.824c-0.11 0.159-0.221 0.296-0.333 0.408-0.114 0.113-0.253 0.224-0.41 0.335-0.489 0.389-1.036 0.662-1.612 0.821-2.972 1.214-7.675 2.077-7.675 2.077s0.862-4.702 2.076-7.675c0.159-0.577 0.433-1.122 0.822-1.613 0.11-0.159 0.221-0.297 0.335-0.409 0.112-0.113 0.25-0.224 0.408-0.334 0.492-0.389 1.036-0.663 1.614-0.822 2.972-1.214 7.675-2.077 7.675-2.077s-0.864 4.704-2.078 7.677c-0.159 0.576-0.433 1.121-0.822 1.613zM18.141 15.192c-0.447-0.447-1.169-0.447-1.616 0s-0.447 1.169 0 1.616c0.447 0.447 1.169 0.447 1.616 0s0.447-1.169 0-1.616z"/>
        </symbol>
        <symbol id="CompassWest" viewBox="0 0 32 32">
            <title>
                CompassWest
            </title>
            <path d="M17.333 0c-8.836 0-16 7.164-16 16 0 8.837 7.164 16.001 16 16.001 8.837 0 16-7.164 16-16.001s-7.163-16-16-16zM17.333 27.428c-6.312 0-11.429-5.117-11.429-11.429 0-6.311 5.117-11.428 11.429-11.428s11.429 5.117 11.429 11.428c0 6.313-5.117 11.429-11.429 11.429zM17.333 11.429c-2.525 0-9.143 4.571-9.143 4.571s6.618 4.572 9.143 4.572c2.525 0 4.572-2.047 4.572-4.572s-2.047-4.571-4.572-4.571zM17.333 17.143c-0.631 0-1.143-0.511-1.143-1.143 0-0.631 0.512-1.143 1.143-1.143 0.632 0 1.143 0.512 1.143 1.143 0 0.632-0.511 1.143-1.143 1.143z"/>
        </symbol>
        <symbol id="CompassSouth" viewBox="0 0 32 32">
            <title>
                CompassSouth
            </title>
            <path d="M16 0c-8.836 0-16 7.164-16 16 0 8.838 7.164 16.002 16 16.002 8.837 0 16-7.164 16-16.002 0-8.837-7.163-16-16-16zM16 27.429c-6.311 0-11.428-5.117-11.428-11.43 0-6.311 5.117-11.428 11.428-11.428 6.312 0 11.429 5.117 11.429 11.428 0 6.314-5.117 11.43-11.429 11.43zM16 11.429c-2.524 0-4.571 2.046-4.571 4.571 0 2.524 4.571 9.144 4.571 9.144s4.572-6.619 4.572-9.144c0-2.525-2.047-4.571-4.572-4.571zM16 17.143c-0.631 0-1.143-0.511-1.143-1.143 0-0.631 0.512-1.143 1.143-1.143 0.632 0 1.143 0.512 1.143 1.143s-0.511 1.143-1.143 1.143z"/>
        </symbol>
        <symbol id="CompassNorth" viewBox="0 0 32 32">
            <title>
                CompassNorth
            </title>
            <path d="M16.001 0c-8.836 0-16.001 7.164-16.001 15.999 0 8.836 7.164 16.001 16.001 16.001 8.835 0 15.999-7.164 15.999-16.001 0-8.835-7.164-15.999-15.999-15.999zM16.001 27.428c-6.312 0-11.429-5.117-11.429-11.429 0-6.31 5.117-11.428 11.429-11.428 6.31 0 11.429 5.117 11.429 11.428 0 6.312-5.118 11.429-11.429 11.429zM11.429 15.999c0 2.525 2.047 4.572 4.572 4.572s4.571-2.047 4.571-4.572c0-2.525-4.571-9.143-4.571-9.143s-4.572 6.618-4.572 9.143zM17.144 15.999c0 0.632-0.512 1.143-1.143 1.143-0.632 0-1.143-0.511-1.143-1.143 0-0.631 0.511-1.143 1.143-1.143 0.631 0 1.143 0.512 1.143 1.143z"/>
        </symbol>
        <symbol id="CompassEast" viewBox="0 0 32 32">
            <title>
                CompassEast
            </title>
            <path d="M16.001 0c-8.837 0-16.001 7.164-16.001 15.999 0 8.837 7.164 16.001 16.001 16.001 8.835 0 15.999-7.164 15.999-16.001 0-8.836-7.164-15.999-15.999-15.999zM16.001 27.427c-6.312 0-11.429-5.117-11.429-11.429 0-6.31 5.117-11.427 11.429-11.427 6.31 0 11.427 5.117 11.427 11.427 0 6.314-5.117 11.429-11.427 11.429zM16.001 11.428c-2.525 0-4.572 2.046-4.572 4.571 0 2.524 2.047 4.572 4.572 4.572 2.522 0 9.141-4.572 9.141-4.572s-6.619-4.571-9.141-4.571zM16.001 17.142c-0.632 0-1.143-0.511-1.143-1.143 0-0.631 0.511-1.143 1.143-1.143 0.63 0 1.141 0.512 1.141 1.143s-0.511 1.143-1.141 1.143z"/>
        </symbol>
        <symbol id="Cloud" viewBox="0 0 32 32">
            <title>
                Cloud
            </title>
            <path d="M11.636 27.272c-6.426 0-11.636-5.209-11.636-11.636s5.21-11.636 11.636-11.636c4.367 0 8.167 2.409 10.158 5.966 0.483-0.082 0.973-0.149 1.479-0.149 4.82 0 8.728 3.908 8.728 8.728 0 4.819-3.907 8.727-8.728 8.727-2.018 0-9.31 0-11.636 0zM23.272 24.363c3.213 0 5.819-2.605 5.819-5.817 0-3.213-2.605-5.819-5.819-5.819-1.164 0-2.242 0.35-3.152 0.939-0.895-3.867-4.345-6.757-8.485-6.757-4.819 0-8.727 3.907-8.727 8.728s3.907 8.727 8.727 8.727c2.631 0 9.44 0 11.636 0z"/>
        </symbol>
        <symbol id="CloudWind" viewBox="0 0 32 32">
            <title>
                CloudWind
            </title>
            <path d="M28.889 22.636v0.030h-2.222c-0.654 0-1.185-0.53-1.185-1.185s0.531-1.185 1.185-1.185h1.778c0.654 0 1.185-0.531 1.185-1.185s-0.53-1.185-1.185-1.185c-0.654 0-1.185-0.531-1.185-1.185s0.531-1.185 1.185-1.185c0.082 0 0.161 0.008 0.238 0.024 1.85 0.125 3.317 1.649 3.317 3.531 0 1.812-1.358 3.305-3.111 3.525zM22.518 15.556c-0.654 0-1.185-0.531-1.185-1.185s0.531-1.185 1.185-1.185c0.082 0 0.161 0.008 0.239 0.024 1.85 0.125 3.317 1.649 3.317 3.532 0 1.813-1.358 3.305-3.111 3.525v0.031h-5.177c-2.378 0-6.732 0-8.304 0-0.654 0-1.185 0.531-1.185 1.185 0 0.655 0.531 1.185 1.185 1.185h13.481v0.031c1.753 0.219 3.111 1.712 3.111 3.525 0 1.882-1.467 3.406-3.317 3.531-0.078 0.015-0.158 0.024-0.239 0.024-0.654 0-1.185-0.531-1.185-1.185s0.531-1.185 1.185-1.185c0.654 0 1.185-0.531 1.185-1.185s-0.531-1.185-1.185-1.185h-13.481v-0.031c-1.754-0.219-3.111-1.713-3.111-3.525 0-0.625 0.174-1.204 0.458-1.713-3.713-1.285-6.384-4.803-6.384-8.953 0-5.236 4.245-9.482 9.482-9.482 3.558 0 6.655 1.963 8.277 4.862 0.394-0.068 0.792-0.122 1.205-0.122 3.494 0 6.394 2.522 6.992 5.845-0.827-0.59-1.808-0.976-2.874-1.076-0.816-1.432-2.354-2.399-4.118-2.399-0.949 0-1.828 0.284-2.569 0.765-0.73-3.151-3.54-5.506-6.913-5.506-3.928 0-7.111 3.184-7.111 7.111s3.184 7.111 7.111 7.111c1.54 0 4.831 0 7.23 0h5.807c0.654 0 1.185-0.531 1.185-1.185 0-0.655-0.53-1.185-1.185-1.185z"/>
        </symbol>
        <symbol id="CloudWindSun" viewBox="0 0 32 32">
            <title>
                CloudWindSun
            </title>
            <path d="M28.666 13h-2c-0.552 0-1-0.448-1-1s0.448-1 1-1h2c0.552 0 1 0.448 1 1s-0.448 1-1 1zM24.738 6.343c-0.391 0.391-1.024 0.391-1.414 0s-0.391-1.024 0-1.414l1.414-1.414c0.39-0.391 1.024-0.391 1.414 0s0.391 1.024 0 1.414l-1.414 1.414zM23.263 14.148c0.456 0.544 0.815 1.17 1.057 1.852h-0.005c0.107 0.301 0.193 0.611 0.25 0.932-0.697-0.498-1.525-0.823-2.424-0.908-0.005-0.009-0.011-0.015-0.016-0.024h0.002c-0.692-1.195-1.981-2-3.46-2-0.801 0-1.542 0.24-2.167 0.645-0.616-2.658-2.987-4.646-5.833-4.646-3.313 0-6 2.686-6 6s2.686 6 6 6c1.3 0 4.077 0 6.101 0h4.9c0.552 0 1-0.448 1-1s-0.448-1-1-1-1-0.448-1-1 0.448-1 1-1c0.069 0 0.136 0.007 0.201 0.020 1.561 0.105 2.799 1.392 2.799 2.98 0 1.53-1.146 2.789-2.625 2.974v0.026h-4.368c-2.006 0-5.68 0-7.007 0-0.552 0-1 0.448-1 1 0 0.553 0.448 1 1 1h11.375v0.026c1.479 0.185 2.625 1.445 2.625 2.974 0 1.588-1.238 2.874-2.799 2.979-0.065 0.013-0.133 0.020-0.201 0.020-0.552 0-1-0.448-1-1s0.448-1 1-1c0.552 0 1-0.448 1-1s-0.448-1-1-1h-11.374v-0.026c-1.48-0.185-2.625-1.445-2.625-2.974 0-0.528 0.147-1.016 0.387-1.445-3.133-1.084-5.386-4.052-5.386-7.554 0-4.418 3.581-8 8-8 0.787 0 1.545 0.116 2.262 0.328 1.098-1.414 2.809-2.327 4.738-2.327 3.313 0 6 2.686 6 6 0 0.758-0.147 1.48-0.403 2.148zM17.667 8c-1.107 0-2.108 0.449-2.832 1.176 1.171 0.718 2.143 1.726 2.815 2.927 0.332-0.057 0.668-0.102 1.017-0.102 1.063 0 2.059 0.28 2.925 0.764 0.048-0.247 0.075-0.503 0.075-0.764 0-2.21-1.791-4.001-4-4.001zM17.667 4c-0.552 0-1-0.448-1-1v-2c0-0.552 0.448-1 1-1s1 0.448 1 1v2c0 0.552-0.448 1-1 1zM10.595 6.343l-1.414-1.414c-0.391-0.391-0.391-1.024 0-1.414s1.024-0.391 1.414 0l1.414 1.414c0.391 0.391 0.391 1.024 0 1.414s-1.023 0.391-1.414 0zM24.166 25c0-0.552 0.448-1 1-1h1.5c0.552 0 1-0.448 1-1s-0.448-1-1-1c-0.552 0-1-0.448-1-1s0.448-1 1-1c0.070 0 0.137 0.007 0.202 0.020 1.561 0.105 2.799 1.392 2.799 2.979 0 1.53-1.146 2.789-2.625 2.974v0.026h-1.875c-0.552 0-1-0.448-1-1z"/>
        </symbol>
        <symbol id="CloudWindMoon" viewBox="0 0 32 32">
            <title>
                CloudWindMoon
            </title>
            <path d="M28.364 24.988v0.030h-2.181c-0.642 0-1.164-0.521-1.164-1.164s0.521-1.163 1.164-1.163h1.745c0.642 0 1.164-0.521 1.164-1.164s-0.521-1.163-1.164-1.163c-0.642 0-1.164-0.521-1.164-1.164s0.521-1.164 1.164-1.164c0.081 0 0.159 0.008 0.235 0.024 1.817 0.123 3.256 1.619 3.256 3.467 0 1.779-1.333 3.245-3.054 3.461zM25.187 13.382h0.006c0.124 0.35 0.224 0.711 0.291 1.084-0.811-0.579-1.775-0.958-2.822-1.056-0.005-0.010-0.012-0.018-0.018-0.028h0.002c-0.805-1.39-2.305-2.327-4.027-2.327-0.931 0-1.794 0.279-2.521 0.751-0.717-3.093-3.476-5.406-6.788-5.406-3.856 0-6.982 3.126-6.982 6.982s3.126 6.982 6.982 6.982c1.512 0 4.744 0 7.098 0h5.701c0.642 0 1.164-0.521 1.164-1.164s-0.521-1.164-1.164-1.164-1.163-0.521-1.163-1.164 0.521-1.164 1.163-1.164c0.081 0 0.159 0.008 0.235 0.024 1.817 0.123 3.257 1.619 3.257 3.467 0 1.78-1.333 3.245-3.055 3.46v0.030h-5.083c-2.335 0-6.609 0-8.153 0-0.642 0-1.163 0.521-1.163 1.163 0 0.643 0.521 1.164 1.163 1.164h13.236v0.031c1.722 0.215 3.055 1.681 3.055 3.46 0 1.848-1.44 3.344-3.257 3.467-0.076 0.015-0.154 0.024-0.235 0.024-0.642 0-1.163-0.521-1.163-1.164s0.521-1.163 1.163-1.163c0.642 0 1.164-0.521 1.164-1.164s-0.521-1.164-1.164-1.164h-13.236v-0.030c-1.721-0.215-3.054-1.682-3.054-3.461 0-0.614 0.171-1.182 0.45-1.682-3.646-1.262-6.268-4.716-6.268-8.791 0-5.141 4.168-9.309 9.309-9.309 1.165 0 2.278 0.219 3.305 0.61 0.951-2.725 3.537-4.683 6.586-4.683 0.439 0 0.868 0.045 1.285 0.123-0.077 0.335-0.121 0.683-0.121 1.041 0 2.571 2.084 4.654 4.655 4.654 0.358 0 0.705-0.044 1.040-0.12 0.078 0.417 0.123 0.845 0.123 1.284 0 1.824-0.705 3.479-1.85 4.722 0.36 0.512 0.641 1.079 0.855 1.678zM18.16 2.448c-1.688 0.386-3.011 1.693-3.447 3.36 1.116 0.798 2.049 1.835 2.723 3.039 0.386-0.066 0.778-0.119 1.183-0.119 1.523 0 2.929 0.493 4.076 1.321 0.5-0.57 0.865-1.262 1.039-2.026-2.825-0.527-5.048-2.75-5.574-5.575z"/>
        </symbol>
        <symbol id="CloudUpload" viewBox="0 0 32 32">
            <title>
                CloudUpload
            </title>
            <path d="M24.607 27.274c-0.605 0-1.69 0-2.968 0 0.017-0.159 0.047-0.314 0.047-0.477v-2.432c1.223 0 2.274 0 2.921 0 3.214 0 5.818-2.605 5.818-5.818 0-3.214-2.605-5.819-5.818-5.819-0.895 0-1.738 0.21-2.493 0.573l-1.177-1.177c-1.35-3.067-4.399-5.215-7.966-5.215-4.82 0-8.727 3.907-8.727 8.727 0 4.817 3.901 8.72 8.715 8.728v2.432c0 0.164 0.031 0.319 0.048 0.477-0.012 0-0.025 0-0.037 0-6.427 0-11.636-5.209-11.636-11.637 0-6.426 5.209-11.636 11.636-11.636 4.367 0 8.168 2.409 10.158 5.967 0.483-0.083 0.973-0.149 1.479-0.149 4.82 0 8.727 3.907 8.727 8.728 0.001 4.819-3.906 8.727-8.726 8.727zM12.181 19.823c-0.568-0.567-0.568-1.489 0-2.056l4.114-4.115c0.567-0.568 1.489-0.568 2.057 0l4.113 4.115c0.568 0.567 0.568 1.489 0 2.056-0.567 0.568-1.489 0.568-2.056 0l-1.631-1.631v8.603c0 0.803-0.652 1.455-1.454 1.455-0.804 0-1.455-0.652-1.455-1.455v-8.603l-1.631 1.631c-0.568 0.569-1.489 0.569-2.057 0z"/>
        </symbol>
        <symbol id="CloudSun" viewBox="0 0 32 32">
            <title>
                CloudSun
            </title>
            <path d="M30.815 16.74h-2.371c-0.654 0-1.185-0.53-1.185-1.185s0.531-1.184 1.185-1.184h2.371c0.654 0 1.185 0.53 1.185 1.184 0 0.655-0.531 1.185-1.185 1.185zM26.158 8.851c-0.463 0.463-1.213 0.463-1.676 0s-0.463-1.213 0-1.675l1.676-1.676c0.463-0.463 1.213-0.463 1.676 0s0.463 1.213 0 1.676l-1.676 1.675zM24.411 18.101c1.037 1.236 1.663 2.827 1.663 4.567 0 3.926-3.184 7.111-7.111 7.111-1.645 0-7.587 0-9.482 0-5.236 0-9.482-4.245-9.482-9.482s4.245-9.482 9.482-9.482c0.932 0 1.831 0.137 2.681 0.388 1.301-1.675 3.33-2.758 5.616-2.758 3.928 0 7.111 3.184 7.111 7.111-0.001 0.898-0.174 1.755-0.478 2.546zM2.37 20.296c0 3.928 3.183 7.111 7.111 7.111 2.143 0 7.692 0 9.482 0 2.618 0 4.741-2.123 4.741-4.74 0-2.618-2.122-4.741-4.741-4.741-0.948 0-1.827 0.286-2.568 0.765-0.73-3.151-3.541-5.505-6.913-5.505-3.928 0-7.111 3.183-7.111 7.111zM17.777 10.815c-1.311 0-2.498 0.532-3.356 1.392 1.387 0.851 2.54 2.046 3.336 3.47 0.394-0.067 0.792-0.121 1.205-0.121 1.259 0 2.441 0.331 3.467 0.905 0.057-0.293 0.089-0.595 0.089-0.905 0-2.617-2.123-4.74-4.741-4.74zM17.777 6.074c-0.654 0-1.185-0.53-1.185-1.185v-2.37c0-0.655 0.531-1.185 1.185-1.185 0.655 0 1.185 0.53 1.185 1.185v2.37c0 0.655-0.53 1.185-1.185 1.185zM9.397 8.851l-1.675-1.675c-0.463-0.463-0.463-1.214 0-1.676s1.213-0.463 1.675 0l1.676 1.676c0.463 0.462 0.463 1.213 0 1.675s-1.213 0.463-1.676 0z"/>
        </symbol>
        <symbol id="CloudSnow" viewBox="0 0 32 32">
            <title>
                CloudSnow
            </title>
            <path d="M26.182 24.1v-3.187c1.738-1.007 2.909-2.883 2.909-5.035 0-3.212-2.605-5.817-5.818-5.817-1.164 0-2.242 0.349-3.152 0.939-0.895-3.867-4.345-6.758-8.485-6.758-4.82 0-8.727 3.908-8.727 8.728 0 2.581 1.127 4.894 2.909 6.491v3.576c-3.475-2.013-5.819-5.762-5.819-10.067 0-6.427 5.21-11.637 11.636-11.637 4.367 0 8.167 2.409 10.158 5.967 0.483-0.082 0.972-0.149 1.479-0.149 4.82 0 8.728 3.908 8.728 8.727 0 3.799-2.432 7.021-5.818 8.221zM10.182 18.788c0.804 0 1.455 0.652 1.455 1.455s-0.651 1.455-1.455 1.455c-0.803 0-1.454-0.651-1.454-1.455s0.651-1.455 1.454-1.455zM10.182 24.607c0.804 0 1.455 0.651 1.455 1.455s-0.651 1.453-1.455 1.453c-0.803 0-1.454-0.651-1.454-1.453 0-0.804 0.651-1.455 1.454-1.455zM16 21.698c0.803 0 1.455 0.651 1.455 1.455s-0.652 1.455-1.455 1.455c-0.804 0-1.455-0.652-1.455-1.455 0-0.804 0.651-1.455 1.455-1.455zM16 27.515c0.803 0 1.455 0.652 1.455 1.455s-0.652 1.455-1.455 1.455c-0.804 0-1.455-0.651-1.455-1.455s0.651-1.455 1.455-1.455zM21.818 18.788c0.804 0 1.455 0.652 1.455 1.455s-0.651 1.455-1.455 1.455c-0.803 0-1.454-0.651-1.454-1.455s0.652-1.455 1.454-1.455zM21.818 24.607c0.804 0 1.455 0.651 1.455 1.455s-0.651 1.453-1.455 1.453c-0.803 0-1.454-0.651-1.454-1.453 0-0.804 0.652-1.455 1.454-1.455z"/>
        </symbol>
        <symbol id="CloudSnowSun" viewBox="0 0 32 32">
            <title>
                CloudSnowSun
            </title>
            <path d="M29.715 14.857h-2.286c-0.631 0-1.143-0.511-1.143-1.143s0.512-1.143 1.143-1.143h2.286c0.631 0 1.142 0.512 1.142 1.143 0 0.632-0.512 1.143-1.142 1.143zM25.224 7.249c-0.446 0.446-1.17 0.446-1.616 0s-0.446-1.17 0-1.616l1.616-1.616c0.446-0.446 1.17-0.446 1.616 0s0.446 1.17 0 1.616l-1.616 1.616zM23.54 16.168c1 1.191 1.603 2.726 1.603 4.403 0 2.985-1.91 5.516-4.571 6.46v-2.504c1.365-0.792 2.285-2.265 2.285-3.956 0-2.524-2.047-4.571-4.571-4.571-0.914 0-1.762 0.274-2.477 0.738-0.704-3.038-3.414-5.31-6.666-5.31-3.787 0-6.857 3.071-6.857 6.858 0 2.028 0.886 3.846 2.285 5.1v2.809c-2.729-1.582-4.571-4.527-4.571-7.91 0-5.050 4.093-9.143 9.143-9.143 0.898 0 1.766 0.133 2.585 0.374 1.254-1.616 3.211-2.66 5.415-2.66 3.787 0 6.857 3.070 6.857 6.857 0 0.866-0.167 1.691-0.461 2.455zM17.143 9.143c-1.264 0-2.409 0.513-3.236 1.344 1.337 0.82 2.449 1.973 3.217 3.345 0.379-0.065 0.764-0.117 1.162-0.117 1.214 0 2.353 0.319 3.343 0.873 0.055-0.282 0.086-0.574 0.086-0.873 0-2.525-2.047-4.571-4.572-4.571zM17.143 4.571c-0.631 0-1.143-0.511-1.143-1.143v-2.285c0-0.631 0.512-1.143 1.143-1.143s1.143 0.512 1.143 1.143v2.285c0 0.631-0.512 1.143-1.143 1.143zM9.061 7.249l-1.616-1.616c-0.446-0.446-0.446-1.17 0-1.616s1.17-0.446 1.616 0l1.616 1.616c0.446 0.446 0.446 1.17 0 1.616s-1.169 0.446-1.616 0zM8 22.857c0.631 0 1.143 0.512 1.143 1.143s-0.512 1.143-1.143 1.143-1.143-0.512-1.143-1.143c0-0.631 0.512-1.143 1.143-1.143zM8 27.429c0.631 0 1.143 0.512 1.143 1.143s-0.512 1.142-1.143 1.142-1.143-0.512-1.143-1.142c0-0.632 0.512-1.143 1.143-1.143zM12.572 25.143c0.631 0 1.142 0.512 1.142 1.143s-0.512 1.143-1.142 1.143c-0.631 0-1.143-0.512-1.143-1.143 0-0.632 0.511-1.143 1.143-1.143zM12.572 29.714c0.631 0 1.142 0.512 1.142 1.143s-0.512 1.143-1.142 1.143c-0.631 0-1.143-0.512-1.143-1.143s0.511-1.143 1.143-1.143zM17.143 22.857c0.631 0 1.143 0.512 1.143 1.143s-0.512 1.143-1.143 1.143-1.143-0.512-1.143-1.143c0-0.631 0.513-1.143 1.143-1.143zM17.143 27.429c0.631 0 1.143 0.512 1.143 1.143s-0.512 1.142-1.143 1.142-1.143-0.512-1.143-1.142c0-0.632 0.513-1.143 1.143-1.143z"/>
        </symbol>
        <symbol id="CloudSnowSunAlt" viewBox="0 0 32 32">
            <title>
                CloudSnowSunAlt
            </title>
            <path d="M30.815 15.407h-2.371c-0.654 0-1.185-0.53-1.185-1.185s0.53-1.185 1.185-1.185h2.371c0.654 0 1.185 0.531 1.185 1.185 0 0.655-0.53 1.185-1.185 1.185zM26.159 7.517c-0.463 0.463-1.214 0.463-1.676 0s-0.463-1.213 0-1.676l1.676-1.676c0.462-0.463 1.213-0.463 1.675 0s0.463 1.213 0 1.676l-1.675 1.676zM24.411 16.767c1.037 1.235 1.663 2.827 1.663 4.566 0 3.523-2.564 6.439-5.926 7.005v-2.419c2.044-0.528 3.555-2.378 3.555-4.586 0-2.618-2.122-4.741-4.74-4.741-0.949 0-1.828 0.284-2.569 0.765-0.73-3.151-3.541-5.506-6.913-5.506-3.927 0-7.111 3.184-7.111 7.112 0 2.63 1.432 4.922 3.555 6.151v2.634c-3.473-1.408-5.926-4.808-5.926-8.786 0-5.237 4.245-9.482 9.481-9.482 0.932 0 1.831 0.137 2.681 0.388 1.301-1.676 3.329-2.758 5.616-2.758 3.927 0 7.111 3.183 7.111 7.111 0 0.899-0.174 1.754-0.478 2.546zM17.778 9.482c-1.312 0-2.498 0.532-3.356 1.393 1.387 0.85 2.54 2.046 3.337 3.469 0.393-0.067 0.792-0.121 1.205-0.121 1.259 0 2.441 0.331 3.467 0.905 0.057-0.293 0.088-0.595 0.088-0.905 0-2.619-2.123-4.741-4.741-4.741zM17.778 4.741c-0.654 0-1.185-0.53-1.185-1.185v-2.37c0-0.654 0.531-1.185 1.185-1.185s1.185 0.531 1.185 1.185v2.37c0 0.655-0.531 1.185-1.185 1.185zM9.397 7.517l-1.676-1.676c-0.463-0.463-0.463-1.213 0-1.676s1.213-0.463 1.676 0l1.676 1.676c0.463 0.463 0.463 1.213 0 1.676s-1.213 0.463-1.676 0zM8.931 24.889c0.328-0.567 1.052-0.76 1.619-0.434l1.302 0.752v-1.502c0-0.654 0.531-1.185 1.185-1.185s1.185 0.531 1.185 1.185v1.502l1.302-0.752c0.567-0.327 1.292-0.133 1.619 0.434 0.328 0.567 0.133 1.292-0.433 1.619l-1.301 0.752 1.302 0.752c0.567 0.328 0.761 1.052 0.433 1.619-0.327 0.566-1.052 0.76-1.619 0.433l-1.302-0.751v1.502c0 0.655-0.53 1.185-1.185 1.185s-1.185-0.53-1.185-1.185v-1.502l-1.302 0.752c-0.567 0.328-1.291 0.133-1.619-0.433-0.327-0.567-0.133-1.292 0.434-1.619l1.301-0.752-1.301-0.752c-0.567-0.328-0.762-1.053-0.434-1.62zM13.037 28.445c0.654 0 1.185-0.531 1.185-1.185s-0.53-1.185-1.185-1.185-1.185 0.53-1.185 1.185c0 0.654 0.53 1.185 1.185 1.185z"/>
        </symbol>
        <symbol id="CloudSnowMoon" viewBox="0 0 32 32">
            <title>
                CloudSnowMoon
            </title>
            <path d="M29.805 13.697c0.932 1.327 1.484 2.941 1.484 4.685 0 3.556-2.276 6.572-5.446 7.696v-2.983c1.626-0.943 2.723-2.698 2.723-4.713 0-3.008-2.438-5.447-5.447-5.447-1.090 0-2.1 0.327-2.951 0.879-0.838-3.62-4.067-6.326-7.942-6.326-4.512 0-8.17 3.659-8.17 8.171 0 2.417 1.055 4.582 2.723 6.076v3.347c-3.253-1.885-5.447-5.394-5.447-9.424 0-6.016 4.877-10.894 10.893-10.894 1.363 0 2.665 0.256 3.868 0.714 1.113-3.188 4.139-5.479 7.707-5.479 0.514 0 1.015 0.053 1.503 0.144-0.089 0.392-0.141 0.799-0.141 1.218 0 3.008 2.438 5.446 5.446 5.446 0.419 0 0.826-0.051 1.218-0.141 0.091 0.488 0.144 0.989 0.144 1.503 0 2.135-0.825 4.072-2.165 5.528zM22.582 2.866c-1.974 0.452-3.523 1.981-4.034 3.932 1.306 0.934 2.399 2.146 3.187 3.555 0.452-0.077 0.91-0.14 1.384-0.14 1.782 0 3.427 0.577 4.77 1.546 0.584-0.667 1.011-1.476 1.216-2.371-3.305-0.616-5.908-3.218-6.523-6.523zM10.865 21.107c0.752 0 1.362 0.61 1.362 1.362s-0.61 1.362-1.362 1.362-1.362-0.609-1.362-1.362c0-0.752 0.609-1.362 1.362-1.362zM10.865 26.554c0.752 0 1.362 0.609 1.362 1.362s-0.61 1.36-1.362 1.36-1.362-0.609-1.362-1.36c0-0.753 0.609-1.362 1.362-1.362zM16.311 23.83c0.752 0 1.362 0.609 1.362 1.362s-0.61 1.362-1.362 1.362-1.361-0.61-1.361-1.362c0-0.753 0.609-1.362 1.361-1.362zM16.311 29.276c0.752 0 1.362 0.61 1.362 1.362s-0.61 1.362-1.362 1.362-1.361-0.609-1.361-1.362c0-0.752 0.609-1.362 1.361-1.362zM21.758 21.107c0.752 0 1.362 0.61 1.362 1.362s-0.61 1.362-1.362 1.362-1.362-0.609-1.362-1.362c0-0.752 0.61-1.362 1.362-1.362zM21.758 26.554c0.752 0 1.362 0.609 1.362 1.362s-0.61 1.36-1.362 1.36-1.362-0.609-1.362-1.36c0-0.753 0.61-1.362 1.362-1.362z"/>
        </symbol>
        <symbol id="CloudSnowMoonAlt" viewBox="0 0 32 32">
            <title>
                CloudSnowMoonAlt
            </title>
            <path d="M29.738 14.306c0.974 1.386 1.55 3.072 1.55 4.894 0 3.715-2.377 6.864-5.689 8.039v-3.116c1.699-0.985 2.844-2.818 2.844-4.923 0-3.141-2.547-5.689-5.689-5.689-1.138 0-2.193 0.341-3.082 0.918-0.876-3.781-4.249-6.608-8.296-6.608-4.712 0-8.533 3.821-8.533 8.534 0 2.524 1.102 4.786 2.844 6.347v3.496c-3.397-1.969-5.689-5.634-5.689-9.843 0-6.283 5.094-11.378 11.378-11.378 1.424 0 2.784 0.267 4.040 0.745 1.163-3.33 4.323-5.723 8.049-5.723 0.537 0 1.060 0.055 1.57 0.15-0.094 0.41-0.148 0.835-0.148 1.272 0 3.142 2.547 5.688 5.689 5.688 0.437 0 0.862-0.053 1.272-0.147 0.095 0.51 0.151 1.033 0.151 1.57 0 2.23-0.862 4.253-2.262 5.773zM22.195 2.993c-2.062 0.472-3.68 2.070-4.213 4.107 1.363 0.976 2.505 2.242 3.328 3.713 0.472-0.080 0.951-0.146 1.446-0.146 1.862 0 3.579 0.602 4.982 1.615 0.611-0.697 1.057-1.541 1.27-2.476-3.452-0.644-6.17-3.361-6.813-6.813zM10.718 23.468c0.393-0.681 1.262-0.912 1.942-0.521l1.562 0.902v-1.803c0-0.785 0.637-1.422 1.422-1.422s1.422 0.637 1.422 1.422v1.803l1.562-0.902c0.68-0.392 1.55-0.16 1.942 0.521 0.393 0.681 0.16 1.55-0.52 1.943l-1.561 0.902 1.562 0.902c0.68 0.393 0.913 1.262 0.52 1.943-0.393 0.679-1.262 0.912-1.942 0.519l-1.562-0.901v1.803c0 0.786-0.637 1.422-1.422 1.422s-1.422-0.637-1.422-1.422v-1.803l-1.562 0.902c-0.68 0.393-1.55 0.16-1.942-0.519-0.393-0.681-0.16-1.55 0.52-1.943l1.562-0.902-1.562-0.902c-0.68-0.394-0.913-1.263-0.521-1.944zM15.645 27.735c0.785 0 1.422-0.637 1.422-1.422s-0.637-1.422-1.422-1.422c-0.785 0-1.422 0.637-1.422 1.422 0 0.784 0.636 1.422 1.422 1.422z"/>
        </symbol>
        <symbol id="CloudSnowAlt" viewBox="0 0 32 32">
            <title>
                CloudSnowAlt
            </title>
            <path d="M24.727 25.811v-2.969c2.508-0.648 4.364-2.918 4.364-5.628 0-3.213-2.605-5.818-5.818-5.818-1.165 0-2.243 0.349-3.152 0.939-0.895-3.867-4.345-6.758-8.484-6.758-4.82 0-8.728 3.908-8.728 8.728 0 3.228 1.758 6.041 4.364 7.549v3.233c-4.262-1.727-7.272-5.901-7.272-10.783 0-6.426 5.209-11.637 11.636-11.637 4.367 0 8.168 2.409 10.158 5.967 0.483-0.082 0.972-0.149 1.479-0.149 4.82 0 8.727 3.908 8.727 8.727 0 4.326-3.147 7.904-7.273 8.599zM10.961 21.578c0.402-0.696 1.291-0.933 1.987-0.532l1.597 0.922v-1.844c0-0.803 0.652-1.455 1.455-1.455s1.455 0.652 1.455 1.455v1.844l1.597-0.922c0.696-0.401 1.586-0.164 1.986 0.532 0.402 0.696 0.164 1.586-0.532 1.987l-1.597 0.922 1.597 0.922c0.695 0.402 0.934 1.291 0.532 1.987-0.401 0.695-1.29 0.933-1.986 0.531l-1.597-0.921v1.844c0 0.804-0.652 1.455-1.455 1.455s-1.455-0.651-1.455-1.455v-1.844l-1.597 0.922c-0.696 0.402-1.586 0.164-1.987-0.531-0.402-0.696-0.164-1.586 0.532-1.987l1.597-0.923-1.597-0.922c-0.696-0.402-0.934-1.291-0.533-1.987zM16 25.942c0.803 0 1.455-0.652 1.455-1.455s-0.652-1.455-1.455-1.455-1.455 0.651-1.455 1.455c0 0.802 0.652 1.455 1.455 1.455z"/>
        </symbol>
        <symbol id="CloudRefresh" viewBox="0 0 32 32">
            <title>
                CloudRefresh
            </title>
            <path d="M26.157 24.106c-0.049-1.020-0.247-1.997-0.575-2.917 2.058-0.894 3.509-2.922 3.509-5.31 0-3.213-2.604-5.819-5.817-5.819-1.164 0-2.243 0.35-3.152 0.938-0.895-3.867-4.345-6.756-8.484-6.756-4.82 0-8.728 3.907-8.728 8.727 0 3.035 1.559 5.694 3.91 7.256-0.428 0.895-0.727 1.861-0.878 2.878-3.542-1.994-5.941-5.78-5.941-10.134 0-6.426 5.21-11.636 11.637-11.636 4.367 0 8.167 2.409 10.158 5.967 0.483-0.083 0.972-0.149 1.479-0.149 4.82 0 8.727 3.907 8.727 8.728 0 3.807-2.442 7.036-5.843 8.226zM16.001 17.061v0.013h2.17l-1.62-1.62c-0.568-0.568-0.568-1.489 0-2.058 0.567-0.567 1.489-0.567 2.055 0l4.114 4.115c0.568 0.567 0.568 1.488 0 2.056l-4.114 4.114c-0.567 0.568-1.489 0.568-2.055 0-0.568-0.568-0.568-1.489 0-2.057l1.642-1.642h-2.194c-2.41 0-4.364 1.954-4.364 4.364 0 2.409 1.954 4.363 4.364 4.363 2.409 0 4.363-1.954 4.363-4.363 0-0.113-0.024-0.219-0.033-0.329l2.409-2.409c0.341 0.842 0.532 1.762 0.532 2.726 0 4.017-3.256 7.274-7.272 7.274-4.017 0-7.274-3.256-7.274-7.274 0.002-4.016 3.258-7.273 7.275-7.273z"/>
        </symbol>
        <symbol id="CloudRain" viewBox="0 0 32 32">
            <title>
                CloudRain
            </title>
            <path d="M26.182 22.765v-3.187c1.738-1.006 2.909-2.881 2.909-5.033 0-3.213-2.605-5.818-5.819-5.818-1.164 0-2.242 0.349-3.152 0.939-0.895-3.867-4.345-6.757-8.485-6.757-4.819 0-8.727 3.907-8.727 8.727 0 2.582 1.128 4.894 2.909 6.492v3.576c-3.475-2.013-5.819-5.762-5.819-10.067 0-6.426 5.21-11.636 11.636-11.636 4.367 0 8.167 2.408 10.158 5.966 0.483-0.082 0.973-0.149 1.479-0.149 4.82 0 8.728 3.907 8.728 8.728 0 3.799-2.43 7.021-5.818 8.22zM10.182 14.546c0.803 0 1.454 0.652 1.454 1.455v11.636c0 0.804-0.651 1.455-1.454 1.455s-1.455-0.651-1.455-1.455v-11.636c0-0.803 0.652-1.455 1.455-1.455zM16 17.455c0.803 0 1.455 0.651 1.455 1.455v11.636c0 0.803-0.652 1.455-1.455 1.455s-1.455-0.652-1.455-1.455v-11.636c0-0.804 0.652-1.455 1.455-1.455zM21.818 14.546c0.803 0 1.454 0.652 1.454 1.455v11.636c0 0.804-0.651 1.455-1.454 1.455s-1.455-0.651-1.455-1.455v-11.636c0-0.803 0.652-1.455 1.455-1.455z"/>
        </symbol>
        <symbol id="CloudRainSun" viewBox="0 0 32 32">
            <title>
                CloudRainSun
            </title>
            <path d="M29.066 13.866h-2.134c-0.589 0-1.067-0.477-1.067-1.067s0.478-1.067 1.067-1.067h2.134c0.589 0 1.067 0.478 1.067 1.067 0 0.59-0.478 1.067-1.067 1.067zM24.875 6.766c-0.417 0.417-1.092 0.417-1.508 0s-0.417-1.092 0-1.508l1.508-1.508c0.417-0.416 1.092-0.416 1.508 0s0.417 1.092 0 1.508l-1.508 1.508zM23.303 15.090c0.933 1.112 1.496 2.544 1.496 4.109 0 2.786-1.783 5.148-4.266 6.028v-2.337c1.274-0.738 2.134-2.113 2.134-3.691 0-2.356-1.911-4.267-4.267-4.267-0.853 0-1.645 0.256-2.312 0.689-0.656-2.836-3.186-4.955-6.222-4.955-3.535 0-6.4 2.865-6.4 6.4 0 1.894 0.827 3.589 2.134 4.761v2.622c-2.548-1.476-4.267-4.226-4.267-7.383 0-4.713 3.82-8.533 8.533-8.533 0.838 0 1.648 0.123 2.413 0.349 1.171-1.508 2.996-2.482 5.054-2.482 3.535 0 6.4 2.865 6.4 6.4-0.001 0.809-0.156 1.579-0.429 2.291zM17.333 8.533c-1.179 0-2.248 0.479-3.020 1.253 1.248 0.765 2.286 1.841 3.002 3.123 0.354-0.060 0.714-0.109 1.084-0.109 1.133 0 2.197 0.298 3.12 0.815 0.051-0.264 0.080-0.536 0.080-0.815 0-2.357-1.911-4.267-4.267-4.267zM17.333 4.266c-0.589 0-1.067-0.477-1.067-1.067v-2.133c0-0.589 0.478-1.066 1.067-1.066s1.067 0.477 1.067 1.066v2.133c0 0.59-0.477 1.067-1.067 1.067zM9.79 6.766l-1.508-1.508c-0.415-0.416-0.415-1.092 0-1.508 0.417-0.416 1.093-0.416 1.508 0l1.508 1.508c0.417 0.417 0.417 1.092 0 1.508s-1.092 0.417-1.508 0zM8.799 19.2c0.589 0 1.067 0.478 1.067 1.067v8.533c0 0.589-0.477 1.067-1.067 1.067s-1.067-0.477-1.067-1.067v-8.533c0-0.589 0.478-1.067 1.067-1.067zM13.066 21.333c0.589 0 1.067 0.477 1.067 1.067v8.533c0 0.589-0.478 1.067-1.067 1.067s-1.067-0.478-1.067-1.067v-8.533c0-0.59 0.477-1.067 1.067-1.067zM17.333 19.2c0.589 0 1.067 0.478 1.067 1.067v8.533c0 0.589-0.477 1.067-1.067 1.067s-1.067-0.477-1.067-1.067v-8.533c0-0.589 0.478-1.067 1.067-1.067z"/>
        </symbol>
        <symbol id="CloudRainSunAlt" viewBox="0 0 32 32">
            <title>
                CloudRainSunAlt
            </title>
            <path d="M30.815 15.407h-2.37c-0.654 0-1.185-0.53-1.185-1.185s0.531-1.185 1.185-1.185h2.37c0.654 0 1.185 0.531 1.185 1.185 0 0.655-0.53 1.185-1.185 1.185zM26.159 7.517c-0.463 0.463-1.213 0.463-1.676 0s-0.463-1.213 0-1.676l1.676-1.676c0.463-0.462 1.213-0.462 1.676 0s0.463 1.214 0 1.676l-1.676 1.676zM24.411 16.768c1.036 1.235 1.662 2.827 1.662 4.565 0 3.928-3.183 7.111-7.111 7.111-0.158 0-0.364 0-0.593 0 0-0.813-0.189-1.625-0.559-2.369 0.46 0 0.86 0 1.152 0 2.618 0 4.741-2.123 4.741-4.741s-2.122-4.74-4.741-4.74c-0.949 0-1.828 0.284-2.569 0.765-0.73-3.152-3.54-5.506-6.913-5.506-3.928 0-7.111 3.184-7.111 7.111 0 0.833 0.151 1.629 0.413 2.371h-0.003c0.852 2.402 2.956 4.21 5.53 4.637-0.378 0.72-0.574 1.51-0.6 2.304-3.613-0.683-6.498-3.414-7.407-6.941h0.007c-0.196-0.758-0.311-1.55-0.311-2.371 0-5.236 4.245-9.481 9.482-9.481 0.932 0 1.831 0.137 2.681 0.388 1.301-1.675 3.329-2.758 5.616-2.758 3.928 0 7.111 3.183 7.111 7.111 0 0.899-0.173 1.754-0.477 2.546zM17.778 9.482c-1.312 0-2.498 0.532-3.356 1.393 1.387 0.85 2.54 2.046 3.336 3.47 0.394-0.067 0.792-0.121 1.205-0.121 1.259 0 2.441 0.331 3.467 0.905 0.057-0.293 0.088-0.595 0.088-0.905 0-2.619-2.122-4.741-4.741-4.741zM17.778 4.74c-0.654 0-1.185-0.53-1.185-1.185v-2.37c0-0.654 0.531-1.185 1.185-1.185s1.185 0.53 1.185 1.185v2.37c0 0.656-0.53 1.185-1.185 1.185zM9.397 7.517l-1.676-1.676c-0.463-0.462-0.463-1.213 0-1.676s1.213-0.462 1.676 0l1.676 1.676c0.463 0.463 0.463 1.214 0 1.676s-1.213 0.463-1.676 0zM13.037 24.254l2.095 2.095c1.157 1.156 1.157 3.033 0 4.189-1.157 1.157-3.033 1.157-4.19 0-1.157-1.156-1.157-3.033 0-4.189l2.095-2.095z"/>
        </symbol>
        <symbol id="CloudRainMoon" viewBox="0 0 32 32">
            <title>
                CloudRainMoon
            </title>
            <path d="M15.137 19.451c-0.693 0-1.255 0.562-1.255 1.255v10.039c0 0.693 0.562 1.255 1.255 1.255s1.255-0.562 1.255-1.255v-10.039c0-0.694-0.563-1.255-1.255-1.255zM20.156 16.941c-0.693 0-1.254 0.562-1.254 1.255v10.039c0 0.693 0.562 1.255 1.254 1.255 0.693 0 1.255-0.562 1.255-1.255v-10.039c0-0.693-0.562-1.255-1.255-1.255zM10.117 16.941c-0.693 0-1.254 0.562-1.254 1.255v10.039c0 0.693 0.562 1.255 1.254 1.255 0.693 0 1.255-0.562 1.255-1.255v-10.039c0-0.693-0.562-1.255-1.255-1.255zM29.568 7.529c0-0.473-0.049-0.935-0.132-1.385-0.361 0.083-0.736 0.131-1.122 0.131-2.772 0-5.019-2.247-5.019-5.019 0-0.386 0.048-0.761 0.13-1.122-0.449-0.084-0.911-0.133-1.385-0.133-3.288 0-6.077 2.112-7.102 5.050-1.108-0.422-2.308-0.657-3.564-0.657-5.544 0-10.039 4.494-10.039 10.038 0 3.714 2.022 6.949 5.020 8.685v-3.085c-1.537-1.379-2.51-3.373-2.51-5.601 0-4.158 3.37-7.529 7.529-7.529 3.571 0 6.547 2.493 7.32 5.83 0.784-0.509 1.715-0.81 2.719-0.81 2.772 0 5.019 2.247 5.019 5.019 0 1.857-1.010 3.475-2.509 4.342v2.749c2.922-1.034 5.019-3.814 5.019-7.092 0-1.608-0.509-3.096-1.368-4.319 1.235-1.342 1.995-3.126 1.995-5.094zM25.808 10.837c-1.238-0.894-2.754-1.425-4.396-1.425-0.437 0-0.859 0.058-1.276 0.129-0.725-1.298-1.733-2.415-2.936-3.276 0.471-1.798 1.898-3.207 3.717-3.624 0.567 3.047 2.966 5.444 6.011 6.012-0.189 0.825-0.582 1.569-1.12 2.185z"/>
        </symbol>
        <symbol id="CloudRainMoonAlt" viewBox="0 0 32 32">
            <title>
                CloudRainMoonAlt
            </title>
            <path d="M31.289 19.2c0 4.713-3.821 8.533-8.533 8.533-0.189 0-0.437 0-0.711 0 0-0.975-0.227-1.95-0.671-2.843 0.553 0 1.031 0 1.382 0 3.141 0 5.689-2.548 5.689-5.69s-2.548-5.689-5.689-5.689c-1.139 0-2.193 0.341-3.082 0.918-0.875-3.781-4.248-6.607-8.296-6.607-4.713 0-8.534 3.821-8.534 8.533 0 1 0.181 1.954 0.496 2.845h-0.003c1.022 2.883 3.547 5.052 6.636 5.564-0.454 0.864-0.689 1.811-0.72 2.764-4.336-0.819-7.798-4.097-8.889-8.329h0.008c-0.235-0.91-0.373-1.86-0.373-2.845 0-6.284 5.094-11.377 11.378-11.377 1.424 0 2.784 0.267 4.039 0.745 1.164-3.33 4.323-5.723 8.050-5.723 0.537 0 1.060 0.055 1.57 0.151-0.094 0.409-0.148 0.834-0.148 1.272 0 3.142 2.548 5.689 5.689 5.689 0.438 0 0.863-0.054 1.272-0.148 0.095 0.51 0.151 1.033 0.151 1.57 0 2.23-0.862 4.252-2.262 5.772 0.974 1.387 1.55 3.072 1.55 4.895zM22.195 2.992c-2.062 0.472-3.68 2.070-4.213 4.107 1.363 0.976 2.505 2.242 3.328 3.713 0.472-0.080 0.95-0.146 1.446-0.146 1.861 0 3.579 0.603 4.982 1.615 0.61-0.697 1.056-1.542 1.27-2.476-3.452-0.643-6.17-3.36-6.813-6.813zM15.644 22.706l2.514 2.514c1.388 1.388 1.388 3.639 0 5.027-1.388 1.389-3.64 1.389-5.028 0-1.388-1.388-1.388-3.639 0-5.027l2.514-2.514z"/>
        </symbol>
        <symbol id="CloudRainAlt" viewBox="0 0 32 32">
            <title>
                CloudRainAlt
            </title>
            <path d="M23.274 25.94c-0.193 0-0.447 0-0.727 0 0-0.998-0.232-1.994-0.686-2.91 0.565 0 1.055 0 1.413 0 3.214 0 5.818-2.604 5.818-5.818s-2.605-5.818-5.818-5.818c-1.164 0-2.242 0.35-3.152 0.938-0.895-3.867-4.345-6.757-8.484-6.757-4.82 0-8.727 3.907-8.727 8.727 0 4.33 3.156 7.913 7.29 8.599-0.463 0.885-0.705 1.854-0.736 2.827-5.387-1.018-9.465-5.743-9.465-11.426 0-6.426 5.209-11.636 11.636-11.636 4.367 0 8.168 2.409 10.158 5.967 0.483-0.083 0.973-0.149 1.479-0.149 4.82 0 8.727 3.907 8.727 8.728s-3.906 8.727-8.726 8.727zM16.001 20.796l2.571 2.571c1.419 1.421 1.419 3.723 0 5.143-1.421 1.421-3.723 1.421-5.143 0-1.421-1.42-1.421-3.722 0-5.143l2.571-2.571z"/>
        </symbol>
        <symbol id="CloudMoon" viewBox="0 0 32 32">
            <title>
                CloudMoon
            </title>
            <path d="M29.739 16.973c0.973 1.386 1.55 3.071 1.55 4.895 0 4.712-3.82 8.533-8.533 8.533-1.974 0-9.104 0-11.378 0-6.284 0-11.378-5.094-11.378-11.378s5.094-11.378 11.378-11.378c1.424 0 2.784 0.267 4.040 0.745 1.163-3.33 4.323-5.723 8.049-5.723 0.537 0 1.060 0.055 1.57 0.151-0.093 0.409-0.147 0.834-0.147 1.272 0 3.142 2.547 5.689 5.688 5.689 0.438 0 0.863-0.054 1.272-0.148 0.095 0.51 0.15 1.033 0.15 1.57-0.001 2.228-0.862 4.252-2.261 5.772zM2.844 19.023c0 4.713 3.82 8.533 8.533 8.533 2.572 0 9.231 0 11.378 0 3.142 0 5.689-2.548 5.689-5.688 0-3.142-2.547-5.69-5.689-5.69-1.138 0-2.193 0.343-3.082 0.918-0.875-3.781-4.248-6.607-8.296-6.607-4.713 0-8.533 3.821-8.533 8.534zM22.195 5.659c-2.063 0.472-3.68 2.070-4.214 4.107 1.364 0.976 2.506 2.242 3.328 3.713 0.472-0.080 0.951-0.146 1.446-0.146 1.862 0 3.579 0.605 4.982 1.615 0.61-0.696 1.056-1.542 1.27-2.476-3.451-0.643-6.17-3.359-6.813-6.813z"/>
        </symbol>
        <symbol id="CloudLightning" viewBox="0 0 32 32">
            <title>
                CloudLightning
            </title>
            <path d="M23.272 23.274c-0.204 0-0.472 0-0.772 0l2.608-3.209c2.314-0.769 3.984-2.948 3.984-5.519 0-3.213-2.605-5.817-5.818-5.817-1.165 0-2.242 0.349-3.152 0.938-0.896-3.867-4.345-6.757-8.485-6.757-4.819 0-8.727 3.907-8.727 8.728 0 3.961 2.642 7.301 6.258 8.367l-0.981 2.747c-4.742-1.47-8.186-5.89-8.186-11.115 0-6.426 5.21-11.637 11.636-11.637 4.367 0 8.167 2.409 10.158 5.967 0.483-0.083 0.972-0.149 1.479-0.149 4.82 0 8.728 3.907 8.728 8.727s-3.908 8.729-8.728 8.729zM14.545 13.091h7.272l-4.363 7.274h5.091l-9.454 11.636 2.618-8.727h-4.801l3.637-10.183z"/>
        </symbol>
        <symbol id="CloudLightningSun" viewBox="0 0 32 32">
            <title>
                CloudLightningSun
            </title>
            <path d="M29.066 13.866h-2.133c-0.589 0-1.067-0.477-1.067-1.067s0.478-1.067 1.067-1.067h2.133c0.589 0 1.067 0.478 1.067 1.067 0 0.59-0.477 1.067-1.067 1.067zM24.875 6.766c-0.417 0.417-1.092 0.417-1.508 0s-0.417-1.092 0-1.508l1.508-1.508c0.417-0.417 1.092-0.417 1.508 0s0.416 1.092 0 1.508l-1.508 1.508zM23.303 15.090c0.716 0.853 1.211 1.896 1.404 3.043h-0.004c0.058 0.348 0.096 0.703 0.096 1.067 0 3.535-2.865 6.401-6.4 6.401-0.149 0-0.346 0-0.566 0l1.912-2.353c1.697-0.564 2.922-2.162 2.922-4.047 0-0.369-0.052-0.725-0.14-1.067-0.474-1.839-2.139-3.2-4.126-3.2-0.854 0-1.644 0.256-2.312 0.689-0.657-2.836-3.186-4.956-6.222-4.956-3.535 0-6.4 2.866-6.4 6.401 0 0.364 0.037 0.719 0.097 1.066h-0.007c0.407 2.426 2.181 4.386 4.501 5.070l-0.72 2.015c-3.149-0.976-5.51-3.728-5.929-7.085-0.044-0.35-0.074-0.705-0.074-1.066 0-4.713 3.82-8.534 8.533-8.534 0.838 0 1.648 0.124 2.413 0.349 1.171-1.508 2.997-2.482 5.054-2.482 3.535 0 6.4 2.865 6.4 6.4-0.001 0.809-0.157 1.578-0.43 2.291zM17.333 8.533c-1.18 0-2.248 0.479-3.020 1.254 1.248 0.765 2.286 1.841 3.002 3.122 0.354-0.060 0.713-0.109 1.084-0.109 1.133 0 2.197 0.298 3.12 0.815 0.051-0.264 0.079-0.536 0.079-0.815 0-2.357-1.91-4.267-4.267-4.267zM17.333 4.267c-0.589 0-1.067-0.478-1.067-1.067v-2.133c0-0.589 0.478-1.067 1.067-1.067s1.067 0.478 1.067 1.067v2.133c0 0.589-0.477 1.067-1.067 1.067zM9.79 6.766l-1.508-1.508c-0.417-0.417-0.417-1.092 0-1.508s1.092-0.417 1.508 0l1.508 1.508c0.417 0.417 0.417 1.092 0 1.508s-1.091 0.417-1.508 0zM11.999 18.133h5.333l-3.2 5.334h3.733l-6.933 8.533 1.92-6.4h-3.52l2.666-7.468z"/>
        </symbol>
        <symbol id="CloudLightningMoon" viewBox="0 0 32 32">
            <title>
                CloudLightningMoon
            </title>
            <path d="M27.575 12.622c0.63 0.898 1.066 1.939 1.257 3.064h-0.003c0.068 0.409 0.113 0.826 0.113 1.255 0 4.159-3.371 7.53-7.53 7.53-0.175 0-0.407 0-0.666 0l2.249-2.769c1.996-0.663 3.438-2.542 3.438-4.761 0-0.434-0.061-0.853-0.165-1.255-0.558-2.163-2.517-3.765-4.855-3.765-1.004 0-1.934 0.302-2.719 0.81-0.773-3.336-3.749-5.83-7.32-5.83-4.158 0-7.529 3.371-7.529 7.53 0 0.429 0.044 0.846 0.113 1.254h-0.009c0.479 2.854 2.565 5.16 5.295 5.965l-0.847 2.371c-3.704-1.149-6.483-4.387-6.976-8.336-0.051-0.412-0.087-0.828-0.087-1.254 0-5.545 4.495-10.039 10.039-10.039 1.257 0 2.456 0.235 3.564 0.658 1.026-2.939 3.815-5.050 7.102-5.050 0.474 0 0.936 0.049 1.386 0.132-0.083 0.361-0.131 0.736-0.131 1.122 0 2.772 2.248 5.020 5.020 5.020 0.387 0 0.761-0.048 1.122-0.13 0.084 0.449 0.133 0.911 0.133 1.385 0.001 1.966-0.76 3.751-1.994 5.092zM20.919 2.64c-1.82 0.416-3.247 1.825-3.718 3.623 1.202 0.861 2.21 1.979 2.936 3.277 0.417-0.072 0.84-0.129 1.276-0.129 1.644 0 3.158 0.532 4.397 1.425 0.538-0.614 0.932-1.361 1.12-2.185-3.045-0.569-5.444-2.966-6.011-6.012zM13.883 15.686h6.275l-3.765 6.275h4.392l-8.157 10.039 2.259-7.529h-4.141l3.137-8.785z"/>
        </symbol>
        <symbol id="CloudHail" viewBox="0 0 32 32">
            <title>
                CloudHail
            </title>
            <path d="M26.182 22.765v-3.187c1.738-1.006 2.909-2.881 2.909-5.033 0-3.213-2.605-5.818-5.818-5.818-1.165 0-2.243 0.349-3.152 0.939-0.895-3.867-4.345-6.757-8.485-6.757-4.82 0-8.727 3.907-8.727 8.727 0 2.582 1.127 4.894 2.909 6.492v3.576c-3.474-2.013-5.818-5.762-5.818-10.068 0-6.426 5.209-11.636 11.636-11.636 4.367 0 8.168 2.408 10.158 5.967 0.482-0.082 0.972-0.149 1.479-0.149 4.82 0 8.727 3.907 8.727 8.728 0 3.799-2.431 7.021-5.818 8.22zM10.182 23.273c-0.803 0-0.727-0.651-0.727-1.453v-5.819c0-0.803-0.076-1.455 0.727-1.455s0.727 0.652 0.727 1.455v5.819c0 0.802 0.076 1.453-0.727 1.453zM10.182 26.182c0.803 0 1.454 0.652 1.454 1.455s-0.651 1.455-1.454 1.455-1.455-0.651-1.455-1.455c0-0.803 0.651-1.455 1.455-1.455zM16 26.182c-0.803 0-0.727-0.651-0.727-1.455v-5.818c0-0.804-0.076-1.455 0.727-1.455s0.727 0.651 0.727 1.455v5.818c0 0.804 0.076 1.455-0.727 1.455zM16 29.092c0.803 0 1.454 0.651 1.454 1.455s-0.651 1.455-1.454 1.455-1.455-0.652-1.455-1.455c0-0.804 0.651-1.455 1.455-1.455zM21.818 23.273c-0.803 0-0.727-0.651-0.727-1.453v-5.819c0-0.803-0.076-1.455 0.727-1.455s0.727 0.652 0.727 1.455v5.819c0 0.802 0.076 1.453-0.727 1.453zM21.818 26.182c0.803 0 1.455 0.652 1.455 1.455s-0.652 1.455-1.455 1.455-1.455-0.651-1.455-1.455c0-0.803 0.652-1.455 1.455-1.455z"/>
        </symbol>
        <symbol id="CloudHailSun" viewBox="0 0 32 32">
            <title>
                CloudHailSun
            </title>
            <path d="M29.067 13.866h-2.134c-0.589 0-1.067-0.477-1.067-1.067s0.478-1.067 1.067-1.067h2.134c0.589 0 1.066 0.478 1.066 1.067 0 0.59-0.477 1.067-1.066 1.067zM24.876 6.766c-0.416 0.417-1.092 0.417-1.508 0s-0.416-1.092 0-1.508l1.508-1.508c0.417-0.416 1.092-0.416 1.508 0s0.417 1.092 0 1.508l-1.508 1.508zM23.303 15.090c0.933 1.112 1.497 2.544 1.497 4.109 0 2.786-1.783 5.148-4.267 6.028v-2.337c1.274-0.738 2.133-2.113 2.133-3.691 0-2.356-1.91-4.267-4.267-4.267-0.853 0-1.644 0.256-2.311 0.689-0.657-2.836-3.187-4.955-6.222-4.955-3.534 0-6.4 2.865-6.4 6.4 0 1.894 0.827 3.589 2.133 4.761v2.622c-2.547-1.476-4.267-4.226-4.267-7.383 0-4.713 3.821-8.533 8.533-8.533 0.838 0 1.648 0.123 2.413 0.349 1.17-1.508 2.996-2.482 5.054-2.482 3.534 0 6.4 2.865 6.4 6.4 0 0.809-0.156 1.579-0.43 2.291zM17.334 8.533c-1.18 0-2.248 0.479-3.021 1.253 1.249 0.765 2.286 1.841 3.002 3.123 0.354-0.060 0.713-0.109 1.084-0.109 1.134 0 2.197 0.298 3.12 0.815 0.051-0.264 0.079-0.536 0.079-0.815 0-2.357-1.91-4.267-4.266-4.267zM17.334 4.266c-0.589 0-1.067-0.477-1.067-1.067v-2.133c0-0.589 0.478-1.066 1.067-1.066s1.066 0.477 1.066 1.066v2.133c0 0.59-0.477 1.067-1.066 1.067zM9.791 6.766l-1.508-1.508c-0.417-0.416-0.417-1.092 0-1.508s1.092-0.416 1.508 0l1.508 1.508c0.416 0.417 0.416 1.092 0 1.508s-1.091 0.417-1.508 0zM8.8 25.599c-0.589 0-0.533-0.477-0.533-1.066v-4.267c0-0.589-0.055-1.067 0.533-1.067s0.533 0.478 0.533 1.067v4.267c0 0.588 0.055 1.066-0.533 1.066zM8.8 27.733c0.589 0 1.066 0.478 1.066 1.067s-0.478 1.067-1.066 1.067c-0.589 0-1.067-0.477-1.067-1.067s0.477-1.067 1.067-1.067zM13.067 27.733c-0.589 0-0.533-0.477-0.533-1.067v-4.266c0-0.589-0.055-1.067 0.533-1.067s0.533 0.477 0.533 1.067v4.266c0 0.589 0.055 1.067-0.533 1.067zM13.067 29.866c0.589 0 1.066 0.477 1.066 1.067s-0.478 1.067-1.066 1.067c-0.589 0-1.067-0.478-1.067-1.067 0-0.59 0.477-1.067 1.067-1.067zM17.334 25.599c-0.589 0-0.533-0.477-0.533-1.066v-4.267c0-0.589-0.055-1.067 0.533-1.067s0.533 0.478 0.533 1.067v4.267c0 0.588 0.056 1.066-0.533 1.066zM17.334 27.733c0.589 0 1.066 0.478 1.066 1.067s-0.478 1.067-1.066 1.067c-0.589 0-1.067-0.477-1.067-1.067s0.478-1.067 1.067-1.067z"/>
        </symbol>
        <symbol id="CloudHailSunAlt" viewBox="0 0 32 32">
            <title>
                CloudHailSunAlt
            </title>
            <path d="M29.505 13.419h-2.065c-0.57 0-1.032-0.462-1.032-1.032s0.462-1.032 1.032-1.032h2.065c0.57 0 1.032 0.463 1.032 1.032s-0.462 1.032-1.032 1.032zM25.45 6.548c-0.403 0.403-1.057 0.403-1.46 0s-0.403-1.057 0-1.46l1.46-1.46c0.403-0.403 1.057-0.403 1.46 0s0.403 1.057 0 1.46l-1.46 1.46zM23.928 14.604c0.903 1.076 1.448 2.462 1.448 3.976 0 2.696-1.725 4.982-4.129 5.834v-2.261c1.233-0.715 2.065-2.046 2.065-3.573 0-2.279-1.849-4.128-4.13-4.128-0.826 0-1.591 0.248-2.237 0.666-0.635-2.744-3.084-4.796-6.021-4.796-3.42 0-6.193 2.773-6.193 6.194 0 0.725 0.13 1.418 0.36 2.064 0.351 0.986 0.941 1.858 1.705 2.543v2.538c-1.889-1.095-3.3-2.915-3.86-5.080-0.171-0.66-0.27-1.35-0.27-2.064 0-4.561 3.697-8.258 8.258-8.258 0.812 0 1.595 0.12 2.335 0.338 1.133-1.46 2.9-2.402 4.891-2.402 3.42 0 6.194 2.772 6.194 6.193 0 0.782-0.151 1.527-0.417 2.217zM18.151 8.258c-1.142 0-2.176 0.464-2.923 1.214 1.208 0.741 2.212 1.782 2.906 3.021 0.343-0.058 0.691-0.106 1.049-0.106 1.097 0 2.126 0.289 3.020 0.788 0.050-0.255 0.077-0.518 0.077-0.788 0-2.28-1.849-4.129-4.129-4.129zM18.151 4.129c-0.57 0-1.032-0.462-1.032-1.032v-2.064c0-0.57 0.462-1.032 1.032-1.032s1.032 0.463 1.032 1.032v2.064c0 0.57-0.462 1.032-1.032 1.032zM10.851 6.548l-1.46-1.46c-0.403-0.403-0.403-1.057 0-1.46s1.057-0.403 1.46 0l1.46 1.46c0.403 0.403 0.403 1.057 0 1.46s-1.056 0.403-1.46 0zM4.215 28.387c0.57 0 1.032 0.462 1.032 1.032s-0.462 1.032-1.032 1.032c-0.57 0-1.032-0.462-1.032-1.032s0.462-1.032 1.032-1.032zM9.377 19.613c0-0.57-0.054-1.032 0.516-1.032s0.516 0.462 0.516 1.032v12.387h-1.032c0-1.14-0.924-2.065-2.064-2.065v-1.032c0.796 0 1.516 0.31 2.064 0.804v-10.094zM14.022 26.838c-0.57 0-0.516-0.462-0.516-1.031v-4.13c0-0.57-0.054-1.032 0.516-1.032s0.516 0.462 0.516 1.032v4.13c0 0.569 0.054 1.031-0.516 1.031zM14.022 28.903c0.57 0 1.032 0.462 1.032 1.032s-0.463 1.032-1.032 1.032c-0.57 0-1.032-0.462-1.032-1.032s0.462-1.032 1.032-1.032zM18.151 18.58c0.57 0 0.516 0.462 0.516 1.032v9.3c0.941-1.256 2.438-2.074 4.129-2.074v1.032c-2.28 0-4.129 1.849-4.129 4.13h-1.032c0-0.141 0.010-0.278 0.021-0.417-0.027-0.172-0.021-0.384-0.021-0.616v-11.355c0-0.57-0.054-1.032 0.516-1.032zM25.892 25.807c0.57 0 1.032 0.462 1.032 1.031 0 0.57-0.462 1.032-1.032 1.032s-1.032-0.462-1.032-1.032c0-0.57 0.462-1.031 1.032-1.031z"/>
        </symbol>
        <symbol id="CloudHailMoon" viewBox="0 0 32 32">
            <title>
                CloudHailMoon
            </title>
            <path d="M27.572 12.622c0.859 1.223 1.368 2.711 1.368 4.318 0 3.277-2.098 6.057-5.020 7.091v-2.749c1.499-0.868 2.51-2.486 2.51-4.342 0-2.772-2.247-5.019-5.019-5.019-1.005 0-1.935 0.301-2.719 0.81-0.773-3.336-3.749-5.829-7.32-5.829-4.158 0-7.529 3.371-7.529 7.529 0 2.228 0.973 4.222 2.509 5.6v3.085c-2.998-1.737-5.019-4.971-5.019-8.685 0-5.544 4.495-10.038 10.039-10.038 1.256 0 2.456 0.235 3.564 0.657 1.026-2.938 3.814-5.050 7.102-5.050 0.474 0 0.936 0.049 1.386 0.133-0.083 0.361-0.131 0.736-0.131 1.122 0 2.772 2.247 5.019 5.019 5.019 0.386 0 0.761-0.048 1.122-0.131 0.083 0.45 0.132 0.912 0.132 1.385 0 1.968-0.76 3.752-1.995 5.093zM20.916 2.641c-1.82 0.417-3.247 1.826-3.717 3.624 1.203 0.861 2.209 1.978 2.936 3.276 0.417-0.071 0.839-0.129 1.276-0.129 1.643 0 3.158 0.532 4.396 1.425 0.538-0.615 0.932-1.36 1.121-2.185-3.046-0.567-5.444-2.964-6.011-6.011zM10.117 24.47c-0.693 0-0.627-0.562-0.627-1.254v-5.020c0-0.693-0.066-1.255 0.627-1.255s0.627 0.562 0.627 1.255v5.020c0 0.692 0.065 1.254-0.627 1.254zM10.117 26.98c0.693 0 1.255 0.562 1.255 1.255s-0.562 1.255-1.255 1.255-1.254-0.562-1.254-1.255c0-0.693 0.561-1.255 1.254-1.255zM15.136 26.98c-0.693 0-0.627-0.562-0.627-1.255v-5.019c0-0.693-0.065-1.255 0.627-1.255s0.627 0.562 0.627 1.255v5.019c0 0.693 0.065 1.255-0.627 1.255zM15.136 29.49c0.693 0 1.255 0.562 1.255 1.255s-0.562 1.255-1.255 1.255-1.254-0.562-1.254-1.255c0-0.694 0.562-1.255 1.254-1.255zM20.156 24.47c-0.693 0-0.628-0.562-0.628-1.254v-5.020c0-0.693-0.065-1.255 0.628-1.255s0.628 0.562 0.628 1.255v5.020c0 0.692 0.066 1.254-0.628 1.254zM20.156 26.98c0.693 0 1.255 0.562 1.255 1.255s-0.562 1.255-1.255 1.255-1.254-0.562-1.254-1.255c0-0.693 0.562-1.255 1.254-1.255z"/>
        </symbol>
        <symbol id="CloudHailMoonAlt" viewBox="0 0 32 32">
            <title>
                CloudHailMoonAlt
            </title>
            <path d="M27.169 27.169c-0.667 0-1.207-0.54-1.207-1.208s0.541-1.206 1.207-1.206c0.667 0 1.208 0.54 1.208 1.206 0 0.667-0.54 1.208-1.208 1.208zM25.25 12.146c0.827 1.177 1.316 2.607 1.316 4.155 0 3.154-2.019 5.828-4.83 6.825v-2.645c1.443-0.836 2.415-2.393 2.415-4.18 0-2.667-2.163-4.83-4.831-4.83-0.966 0-1.862 0.29-2.616 0.78-0.743-3.21-3.607-5.61-7.044-5.61-4.001 0-7.245 3.244-7.245 7.246 0 0.848 0.152 1.659 0.421 2.414 0.411 1.153 1.1 2.174 1.994 2.975v2.968c-2.21-1.281-3.86-3.41-4.515-5.943-0.2-0.772-0.316-1.579-0.316-2.414 0-5.335 4.325-9.661 9.66-9.661 1.209 0 2.363 0.227 3.43 0.633 0.987-2.827 3.67-4.859 6.834-4.859 0.456 0 0.9 0.047 1.333 0.127-0.080 0.348-0.126 0.709-0.126 1.080 0 2.668 2.163 4.83 4.83 4.83 0.372 0 0.732-0.045 1.080-0.125 0.080 0.433 0.127 0.877 0.127 1.333 0 1.892-0.731 3.61-1.92 4.901zM18.845 2.54c-1.751 0.401-3.125 1.757-3.578 3.487 1.158 0.828 2.127 1.903 2.825 3.152 0.401-0.068 0.808-0.124 1.228-0.124 1.581 0 3.039 0.512 4.231 1.371 0.518-0.592 0.897-1.309 1.078-2.103-2.93-0.545-5.238-2.853-5.784-5.784zM1.812 27.773c0.667 0 1.208 0.541 1.208 1.208s-0.541 1.208-1.208 1.208-1.208-0.54-1.208-1.208c0-0.667 0.54-1.208 1.208-1.208zM7.849 17.509c0-0.667-0.063-1.208 0.603-1.208 0.667 0 0.604 0.541 0.604 1.208v14.491h-1.207c0-1.334-1.081-2.415-2.415-2.415v-1.208c0.932 0 1.773 0.362 2.415 0.94v-11.808zM13.283 25.962c-0.667 0-0.604-0.54-0.604-1.206v-4.831c0-0.667-0.063-1.208 0.604-1.208s0.604 0.541 0.604 1.208v4.831c0 0.666 0.062 1.206-0.604 1.206zM13.283 28.377c0.667 0 1.208 0.541 1.208 1.208s-0.541 1.208-1.208 1.208c-0.667 0-1.208-0.541-1.208-1.208s0.54-1.208 1.208-1.208zM18.113 16.301c0.667 0 0.604 0.541 0.604 1.208v10.879c1.101-1.47 2.852-2.426 4.831-2.426v1.208c-2.668 0-4.831 2.163-4.831 4.831h-1.207c0-0.165 0.011-0.325 0.024-0.487-0.032-0.202-0.024-0.449-0.024-0.72v-13.283c0-0.667-0.063-1.208 0.603-1.208z"/>
        </symbol>
        <symbol id="CloudHailAlt" viewBox="0 0 32 32">
            <title>
                CloudHailAlt
            </title>
            <path d="M30.638 25.873c-0.752 0-1.361-0.609-1.361-1.362s0.609-1.362 1.361-1.362 1.362 0.61 1.362 1.362c0 0.752-0.609 1.362-1.362 1.362zM24.51 21.312v-2.983c1.627-0.942 2.724-2.697 2.724-4.712 0-3.008-2.438-5.447-5.447-5.447-1.090 0-2.099 0.327-2.951 0.879-0.838-3.621-4.067-6.326-7.942-6.326-4.513 0-8.171 3.658-8.171 8.17 0 2.417 1.056 4.581 2.724 6.077v3.348c-3.253-1.885-5.447-5.394-5.447-9.425 0-6.016 4.877-10.893 10.894-10.893 4.088 0 7.646 2.255 9.509 5.586 0.452-0.077 0.91-0.14 1.384-0.14 4.512 0 8.17 3.658 8.17 8.171 0 3.557-2.276 6.573-5.447 7.695zM2.043 26.554c0.752 0 1.361 0.609 1.361 1.362s-0.609 1.362-1.361 1.362-1.362-0.61-1.362-1.362c0-0.753 0.609-1.362 1.362-1.362zM8.851 14.979c0-0.752-0.071-1.362 0.681-1.362s0.681 0.61 0.681 1.362v16.341h-1.362c0-1.504-1.219-2.724-2.723-2.724v-1.362c1.051 0 2 0.409 2.723 1.060v-13.316zM14.979 24.511c-0.752 0-0.681-0.609-0.681-1.362v-5.446c0-0.752-0.071-1.362 0.681-1.362s0.681 0.609 0.681 1.362v5.446c0 0.752 0.071 1.362-0.681 1.362zM14.979 27.235c0.752 0 1.362 0.609 1.362 1.362s-0.61 1.362-1.362 1.362-1.362-0.61-1.362-1.362c0-0.753 0.61-1.362 1.362-1.362zM20.425 13.617c0.752 0 0.681 0.61 0.681 1.362v12.268c1.241-1.657 3.216-2.736 5.447-2.736v1.362c-3.008 0-5.447 2.439-5.447 5.447h-1.362c0-0.186 0.014-0.368 0.028-0.55-0.037-0.227-0.028-0.507-0.028-0.812v-14.979c0-0.752-0.071-1.362 0.681-1.362z"/>
        </symbol>
        <symbol id="CloudFog" viewBox="0 0 32 32">
            <title>
                CloudFog
            </title>
            <path d="M30.545 24.607h-29.091c-0.803 0-1.455-0.652-1.455-1.455s0.652-1.455 1.455-1.455h29.091c0.803 0 1.455 0.651 1.455 1.455 0 0.802-0.651 1.455-1.455 1.455zM30.545 18.788h-29.091c-0.803 0-1.455-0.651-1.455-1.455s0.652-1.455 1.455-1.455h29.091c0.803 0 1.455 0.652 1.455 1.455s-0.651 1.455-1.455 1.455zM23.272 10.061c-1.165 0-2.242 0.349-3.152 0.939-0.896-3.867-4.345-6.758-8.485-6.758-4.819 0-8.727 3.908-8.727 8.728h-2.909c0-6.426 5.21-11.637 11.636-11.637 4.367 0 8.167 2.409 10.158 5.967 0.483-0.082 0.972-0.149 1.479-0.149 3.798 0 7.020 2.431 8.22 5.819h-3.187c-1.007-1.738-2.881-2.909-5.033-2.909zM1.455 27.515h29.091c0.803 0 1.455 0.652 1.455 1.455s-0.652 1.455-1.455 1.455h-29.091c-0.803 0-1.455-0.651-1.455-1.455s0.651-1.455 1.455-1.455z"/>
        </symbol>
        <symbol id="CloudFogSunAlt" viewBox="0 0 32 32">
            <title>
                CloudFogSunAlt
            </title>
            <path d="M30.815 18.074h-2.371c-0.654 0-1.185-0.531-1.185-1.185s0.531-1.185 1.185-1.185h2.371c0.654 0 1.185 0.531 1.185 1.185s-0.531 1.185-1.185 1.185zM26.158 10.184c-0.463 0.463-1.213 0.463-1.676 0s-0.463-1.213 0-1.676l1.676-1.676c0.463-0.463 1.213-0.463 1.676 0s0.463 1.213 0 1.676l-1.676 1.676zM24.782 18.074h-24.086c0.167-0.411 0.363-0.805 0.583-1.185h16.4c0.024 0.041 0.056 0.079 0.079 0.122 0.394-0.068 0.792-0.122 1.205-0.122 1.259 0 2.441 0.331 3.467 0.905 0.057-0.293 0.089-0.596 0.089-0.905 0-2.618-2.123-4.741-4.741-4.741-1.2 0-2.293 0.45-3.127 1.185h-9.755c1.36-0.753 2.922-1.185 4.586-1.185 0.932 0 1.831 0.137 2.681 0.388 1.301-1.676 3.33-2.758 5.615-2.758 3.928 0 7.111 3.183 7.111 7.111 0 0.405-0.040 0.799-0.107 1.185zM17.777 7.407c-0.654 0-1.185-0.531-1.185-1.185v-2.37c0-0.654 0.531-1.185 1.185-1.185 0.655 0 1.185 0.531 1.185 1.185v2.37c0 0.654-0.53 1.185-1.185 1.185zM9.397 10.184l-1.675-1.676c-0.463-0.463-0.463-1.213 0-1.676s1.213-0.463 1.675 0l1.676 1.676c0.463 0.463 0.463 1.213 0 1.676s-1.213 0.463-1.676 0zM3.225 14.518h12.494c0.413 0.362 0.792 0.757 1.137 1.185h-14.768c0.344-0.428 0.726-0.823 1.138-1.185zM25.971 22.814h-25.889c-0.049-0.389-0.082-0.782-0.082-1.185h25.664c0.135 0.382 0.239 0.778 0.308 1.185zM3.225 28.741h21.028c-0.403 0.449-0.858 0.85-1.363 1.184h-17.994c-0.602-0.332-1.159-0.734-1.671-1.184zM1.279 26.37h24.381c-0.146 0.414-0.329 0.81-0.545 1.185h-23.028c-0.299-0.373-0.567-0.77-0.808-1.185zM0.082 20.443c0.050-0.404 0.129-0.798 0.229-1.184h24.159c-0.021 0.058-0.037 0.117-0.059 0.175 0.264 0.314 0.501 0.653 0.708 1.009h-25.037zM0.311 23.999h25.763c0 0.405-0.042 0.799-0.107 1.185h-25.271c-0.155-0.383-0.28-0.781-0.385-1.185z"/>
        </symbol>
        <symbol id="CloudFogMoon" viewBox="0 0 32 32">
            <title>
                CloudFogMoon
            </title>
            <path d="M29.807 13.696c0.42 0.599 0.75 1.262 1 1.964h-2.974c-0.942-1.627-2.698-2.723-4.713-2.723-1.090 0-2.099 0.327-2.951 0.878-0.838-3.62-4.068-6.326-7.943-6.326-4.512 0-8.17 3.658-8.17 8.171h-2.724c0-6.016 4.878-10.894 10.894-10.894 1.364 0 2.665 0.256 3.868 0.714 1.113-3.189 4.139-5.479 7.707-5.479 0.515 0 1.016 0.053 1.503 0.144-0.090 0.392-0.142 0.799-0.142 1.218 0 3.008 2.439 5.446 5.447 5.446 0.419 0 0.825-0.052 1.218-0.141 0.091 0.488 0.144 0.989 0.144 1.503 0 2.134-0.825 4.071-2.165 5.526zM22.585 2.865c-1.975 0.451-3.524 1.982-4.034 3.932 1.305 0.934 2.398 2.147 3.185 3.556 0.452-0.078 0.911-0.14 1.384-0.14 1.783 0 3.427 0.577 4.771 1.546 0.584-0.667 1.011-1.477 1.215-2.371-3.305-0.616-5.907-3.218-6.522-6.523zM2.695 18.383h27.235c0.752 0 1.361 0.61 1.361 1.362s-0.61 1.362-1.361 1.362h-27.235c-0.752 0-1.362-0.61-1.362-1.362s0.61-1.362 1.362-1.362zM2.695 23.83h27.235c0.752 0 1.361 0.609 1.361 1.361s-0.61 1.362-1.361 1.362h-27.235c-0.752 0-1.362-0.61-1.362-1.362s0.61-1.361 1.362-1.361zM2.695 29.276h27.235c0.752 0 1.361 0.61 1.361 1.362s-0.61 1.362-1.361 1.362h-27.235c-0.752 0-1.362-0.61-1.362-1.362s0.61-1.362 1.362-1.362z"/>
        </symbol>
        <symbol id="CloudFogMoonAlt" viewBox="0 0 32 32">
            <title>
                CloudFogMoonAlt
            </title>
            <path d="M27.887 14.756c0.531-0.659 0.927-1.432 1.121-2.284-3.452-0.643-6.17-3.361-6.813-6.813-1.82 0.416-3.29 1.71-3.979 3.407h-12.342c1.631-0.904 3.506-1.422 5.503-1.422 1.424 0 2.784 0.267 4.040 0.745 1.163-3.331 4.323-5.723 8.049-5.723 0.537 0 1.060 0.055 1.57 0.15-0.093 0.41-0.147 0.834-0.147 1.272 0 3.142 2.547 5.688 5.688 5.688 0.438 0 0.863-0.054 1.272-0.147 0.095 0.51 0.15 1.033 0.15 1.57 0 1.272-0.288 2.474-0.789 3.556h-3.324zM31.289 21.866c0 0.486-0.050 0.959-0.128 1.422h-30.326c-0.186-0.459-0.336-0.935-0.462-1.422h30.915zM30.793 24.711c-0.176 0.497-0.395 0.972-0.654 1.422h-27.635c-0.359-0.447-0.68-0.924-0.969-1.422h29.258zM29.104 27.556c-0.484 0.539-1.029 1.020-1.635 1.422h-21.594c-0.723-0.4-1.39-0.881-2.004-1.422h25.234zM0.099 20.444c-0.058-0.467-0.099-0.939-0.099-1.422h30.784c0.163 0.459 0.297 0.932 0.38 1.422h-31.065zM29.739 16.971c0.139 0.2 0.252 0.418 0.375 0.629h-30.015c0.060-0.485 0.155-0.958 0.275-1.422h30.006c-0.2 0.275-0.41 0.543-0.64 0.793zM27.448 14.756h-26.613c0.2-0.493 0.436-0.967 0.7-1.422h19.683c0.028 0.050 0.065 0.095 0.092 0.146 0.472-0.081 0.951-0.146 1.446-0.146 1.737 0 3.345 0.53 4.693 1.422zM3.87 10.489h15.014c0.49 0.432 0.935 0.912 1.345 1.422h-17.725c0.413-0.514 0.872-0.987 1.366-1.422z"/>
        </symbol>
        <symbol id="CloudFogAlt" viewBox="0 0 32 32">
            <title>
                CloudFogAlt
            </title>
            <path d="M0.854 21.333c-0.191-0.47-0.344-0.956-0.471-1.455h31.617c0 0.497-0.051 0.98-0.132 1.455h-31.014zM6.008 6.787c1.668-0.924 3.586-1.454 5.628-1.454 2.041 0 3.954 0.531 5.62 1.454h-11.248zM0.101 15.515c0.062-0.496 0.159-0.98 0.281-1.454h29.382c0.401 0.446 0.756 0.932 1.058 1.454h-30.721zM0.854 12.606c0.204-0.504 0.446-0.988 0.716-1.455h20.134c0.029 0.049 0.061 0.098 0.089 0.149 0.483-0.083 0.973-0.149 1.479-0.149 1.783 0 3.44 0.537 4.82 1.455h-27.238zM2.561 9.697c0.422-0.526 0.891-1.010 1.397-1.455h15.363c0.502 0.444 0.964 0.931 1.384 1.455h-18.143zM31.868 18.423h-31.767c-0.060-0.477-0.101-0.96-0.101-1.454h31.492c0.165 0.468 0.292 0.954 0.375 1.454zM31.492 22.787c-0.18 0.508-0.404 0.994-0.67 1.455h-28.261c-0.367-0.457-0.696-0.945-0.991-1.455h29.923zM3.957 25.697h25.806c-0.495 0.551-1.052 1.043-1.672 1.454h-22.083c-0.739-0.409-1.421-0.902-2.050-1.454z"/>
        </symbol>
        <symbol id="CloudDrizzle" viewBox="0 0 32 32">
            <title>
                CloudDrizzle
            </title>
            <path d="M26.182 22.766v-3.187c1.736-1.007 2.908-2.881 2.908-5.033 0-3.214-2.604-5.819-5.818-5.819-1.165 0-2.243 0.35-3.152 0.939-0.896-3.867-4.345-6.757-8.484-6.757-4.82 0-8.727 3.907-8.727 8.728 0 2.581 1.127 4.894 2.908 6.493v3.574c-3.475-2.013-5.818-5.762-5.818-10.067 0-6.427 5.209-11.636 11.636-11.636 4.367 0 8.168 2.409 10.158 5.967 0.483-0.082 0.972-0.149 1.479-0.149 4.82 0 8.727 3.908 8.727 8.728 0 3.798-2.43 7.021-5.818 8.22zM10.182 14.547c0.803 0 1.455 0.651 1.455 1.455v2.908c0 0.804-0.652 1.455-1.455 1.455s-1.455-0.651-1.455-1.455v-2.908c0-0.804 0.651-1.455 1.455-1.455zM10.182 23.274c0.803 0 1.455 0.651 1.455 1.455v2.908c0 0.804-0.652 1.455-1.455 1.455s-1.455-0.651-1.455-1.455v-2.908c0-0.804 0.651-1.455 1.455-1.455zM15.999 17.455c0.804 0 1.455 0.652 1.455 1.455v2.91c0 0.803-0.651 1.455-1.455 1.455s-1.453-0.652-1.453-1.455v-2.91c0-0.803 0.651-1.455 1.453-1.455zM15.999 26.183c0.804 0 1.455 0.651 1.455 1.453v2.91c0 0.804-0.651 1.455-1.455 1.455s-1.453-0.651-1.453-1.455v-2.91c0-0.803 0.651-1.453 1.453-1.453zM21.818 14.547c0.803 0 1.455 0.651 1.455 1.455v2.908c0 0.804-0.652 1.455-1.455 1.455s-1.455-0.651-1.455-1.455v-2.908c0-0.804 0.651-1.455 1.455-1.455zM21.818 23.274c0.803 0 1.455 0.651 1.455 1.455v2.908c0 0.804-0.652 1.455-1.455 1.455s-1.455-0.651-1.455-1.455v-2.908c0-0.804 0.651-1.455 1.455-1.455z"/>
        </symbol>
        <symbol id="CloudDrizzleSun" viewBox="0 0 32 32">
            <title>
                CloudDrizzleSun
            </title>
            <path d="M29.066 13.866h-2.133c-0.589 0-1.067-0.477-1.067-1.067s0.478-1.066 1.067-1.066h2.133c0.589 0 1.067 0.477 1.067 1.066s-0.477 1.067-1.067 1.067zM24.876 6.766c-0.417 0.417-1.092 0.417-1.508 0s-0.417-1.092 0-1.508l1.508-1.508c0.416-0.417 1.092-0.417 1.508 0s0.416 1.092 0 1.508l-1.508 1.508zM23.304 15.091c0.933 1.113 1.496 2.544 1.496 4.11 0 2.785-1.783 5.148-4.267 6.028v-2.337c1.274-0.739 2.134-2.113 2.134-3.691 0-2.357-1.911-4.267-4.267-4.267-0.854 0-1.645 0.257-2.312 0.689-0.657-2.836-3.186-4.955-6.222-4.955-3.535 0-6.4 2.865-6.4 6.4 0 1.893 0.827 3.589 2.134 4.761v2.621c-2.548-1.476-4.267-4.226-4.267-7.382 0-4.713 3.82-8.533 8.533-8.533 0.838 0 1.648 0.124 2.413 0.349 1.171-1.508 2.996-2.482 5.054-2.482 3.535 0 6.4 2.865 6.4 6.4-0.001 0.808-0.156 1.579-0.429 2.291zM17.333 8.533c-1.18 0-2.248 0.479-3.021 1.254 1.249 0.766 2.286 1.841 3.003 3.122 0.354-0.060 0.713-0.109 1.084-0.109 1.134 0 2.197 0.298 3.12 0.815 0.051-0.264 0.079-0.536 0.079-0.815 0-2.356-1.91-4.266-4.267-4.266zM17.333 4.266c-0.589 0-1.067-0.477-1.067-1.066v-2.133c0-0.589 0.478-1.067 1.067-1.067s1.067 0.477 1.067 1.067v2.133c0 0.589-0.477 1.066-1.067 1.066zM9.79 6.766l-1.508-1.508c-0.416-0.417-0.416-1.092 0-1.508s1.092-0.417 1.508 0l1.508 1.508c0.417 0.416 0.417 1.092 0 1.508s-1.092 0.417-1.508 0zM8.799 19.2c0.589 0 1.067 0.477 1.067 1.067v2.133c0 0.589-0.478 1.067-1.067 1.067s-1.067-0.477-1.067-1.067v-2.133c0-0.59 0.478-1.067 1.067-1.067zM8.799 25.6c0.589 0 1.067 0.477 1.067 1.067v2.133c0 0.589-0.478 1.067-1.067 1.067s-1.067-0.477-1.067-1.067v-2.133c0-0.59 0.478-1.067 1.067-1.067zM13.066 21.333c0.589 0 1.067 0.478 1.067 1.067v2.134c0 0.589-0.478 1.067-1.067 1.067s-1.067-0.478-1.067-1.067v-2.134c0-0.589 0.478-1.067 1.067-1.067zM13.066 27.734c0.589 0 1.067 0.477 1.067 1.066v2.134c0 0.589-0.478 1.067-1.067 1.067s-1.067-0.477-1.067-1.067v-2.134c0-0.589 0.478-1.066 1.067-1.066zM17.333 19.2c0.589 0 1.067 0.477 1.067 1.067v2.133c0 0.589-0.478 1.067-1.067 1.067s-1.067-0.477-1.067-1.067v-2.133c0-0.59 0.478-1.067 1.067-1.067zM17.333 25.6c0.589 0 1.067 0.477 1.067 1.067v2.133c0 0.589-0.478 1.067-1.067 1.067s-1.067-0.477-1.067-1.067v-2.133c0-0.59 0.478-1.067 1.067-1.067z"/>
        </symbol>
        <symbol id="CloudDrizzleSunAlt" viewBox="0 0 32 32">
            <title>
                CloudDrizzleSunAlt
            </title>
            <path d="M29.801 14.233h-2.19c-0.604 0-1.095-0.49-1.095-1.095s0.491-1.094 1.095-1.094h2.19c0.604 0 1.095 0.49 1.095 1.094 0 0.606-0.489 1.095-1.095 1.095zM25.499 6.944c-0.428 0.428-1.121 0.428-1.548 0s-0.428-1.121 0-1.548l1.548-1.548c0.428-0.428 1.121-0.428 1.548 0s0.428 1.121 0 1.548l-1.548 1.548zM23.885 15.489c0.958 1.142 1.536 2.612 1.536 4.219 0 2.862-1.834 5.289-4.388 6.19-0.015-0.732-0.238-1.456-0.669-2.084 1.672-0.617 2.866-2.22 2.866-4.105 0-2.419-1.961-4.38-4.38-4.38-0.877 0-1.688 0.264-2.372 0.707-0.675-2.911-3.271-5.087-6.387-5.087-3.628 0-6.569 2.941-6.569 6.57 0 0.769 0.139 1.503 0.382 2.19h0.008c0.534 1.5 1.585 2.755 2.954 3.529l-0.032 0.031c-0.537 0.537-0.874 1.196-1.025 1.886-2.054-1.154-3.587-3.113-4.19-5.446-0.181-0.701-0.287-1.433-0.287-2.19 0-4.838 3.922-8.759 8.759-8.759 0.861 0 1.691 0.127 2.476 0.358 1.202-1.548 3.076-2.548 5.188-2.548 3.628 0 6.57 2.941 6.57 6.569-0.001 0.829-0.161 1.621-0.441 2.351zM17.756 8.759c-1.211 0-2.307 0.492-3.1 1.287 1.281 0.786 2.347 1.891 3.082 3.205 0.364-0.062 0.732-0.112 1.113-0.112 1.164 0 2.255 0.306 3.203 0.836 0.053-0.27 0.082-0.55 0.082-0.836 0-2.418-1.961-4.379-4.38-4.379zM17.756 4.379c-0.604 0-1.095-0.49-1.095-1.095v-2.19c0-0.605 0.49-1.095 1.095-1.095s1.095 0.49 1.095 1.095v2.19c0 0.604-0.49 1.095-1.095 1.095zM10.015 6.944l-1.548-1.548c-0.428-0.428-0.428-1.121 0-1.548s1.121-0.428 1.548 0l1.548 1.548c0.427 0.427 0.427 1.121 0 1.548s-1.121 0.428-1.548 0zM9.545 23.656l1.161 1.161c0.642 0.642 0.642 1.681 0 2.323s-1.681 0.642-2.323 0c-0.641-0.642-0.641-1.681 0-2.323l1.161-1.161zM13.377 28.035l1.161 1.161c0.642 0.642 0.642 1.682 0 2.323-0.641 0.642-1.681 0.642-2.323 0-0.641-0.641-0.641-1.681 0-2.323l1.161-1.161zM17.209 23.656l1.161 1.161c0.642 0.642 0.642 1.681 0 2.323s-1.681 0.642-2.322 0c-0.642-0.642-0.642-1.681 0-2.323l1.161-1.161z"/>
        </symbol>
        <symbol id="CloudDrizzleMoon" viewBox="0 0 32 32">
            <title>
                CloudDrizzleMoon
            </title>
            <path d="M27.573 12.623c0.859 1.223 1.368 2.71 1.368 4.319 0 3.276-2.097 6.057-5.019 7.092v-2.749c1.499-0.869 2.509-2.486 2.509-4.342 0-2.772-2.247-5.020-5.019-5.020-1.004 0-1.935 0.302-2.72 0.81-0.772-3.336-3.748-5.83-7.319-5.83-4.159 0-7.529 3.371-7.529 7.53 0 2.227 0.972 4.223 2.509 5.601v3.084c-2.996-1.737-5.019-4.971-5.019-8.685 0-5.545 4.494-10.039 10.039-10.039 1.256 0 2.456 0.235 3.564 0.657 1.026-2.938 3.814-5.050 7.102-5.050 0.474 0 0.935 0.049 1.385 0.133-0.082 0.361-0.13 0.736-0.13 1.122 0 2.772 2.247 5.020 5.019 5.020 0.386 0 0.761-0.048 1.123-0.131 0.083 0.45 0.132 0.912 0.132 1.386-0.001 1.966-0.761 3.751-1.996 5.093zM20.916 2.64c-1.82 0.417-3.247 1.826-3.717 3.624 1.204 0.861 2.211 1.978 2.937 3.276 0.417-0.071 0.838-0.129 1.276-0.129 1.642 0 3.158 0.533 4.396 1.425 0.538-0.614 0.931-1.36 1.12-2.185-3.045-0.568-5.444-2.965-6.012-6.012zM10.117 16.942c0.693 0 1.255 0.562 1.255 1.255v2.509c0 0.693-0.562 1.255-1.255 1.255s-1.255-0.562-1.255-1.255v-2.509c0-0.694 0.563-1.255 1.255-1.255zM10.117 24.471c0.693 0 1.255 0.562 1.255 1.255v2.509c0 0.693-0.562 1.255-1.255 1.255s-1.255-0.562-1.255-1.255v-2.509c0-0.694 0.563-1.255 1.255-1.255zM15.137 19.451c0.693 0 1.254 0.562 1.254 1.255v2.51c0 0.693-0.562 1.255-1.254 1.255-0.693 0-1.255-0.562-1.255-1.255v-2.51c0-0.693 0.562-1.255 1.255-1.255zM15.137 26.981c0.693 0 1.254 0.562 1.254 1.254v2.51c0 0.693-0.562 1.255-1.254 1.255-0.693 0-1.255-0.562-1.255-1.255v-2.51c0-0.693 0.562-1.254 1.255-1.254zM20.156 16.942c0.693 0 1.255 0.562 1.255 1.255v2.509c0 0.693-0.562 1.255-1.255 1.255s-1.255-0.562-1.255-1.255v-2.509c0-0.694 0.563-1.255 1.255-1.255zM20.156 24.471c0.693 0 1.255 0.562 1.255 1.255v2.509c0 0.693-0.562 1.255-1.255 1.255s-1.255-0.562-1.255-1.255v-2.509c0-0.694 0.563-1.255 1.255-1.255z"/>
        </symbol>
        <symbol id="CloudDrizzleMoonAlt" viewBox="0 0 32 32">
            <title>
                CloudDrizzleMoonAlt
            </title>
            <path d="M28.394 13.018c0.886 1.261 1.41 2.794 1.41 4.454 0 3.383-2.167 6.251-5.186 7.316-0.017-0.865-0.281-1.721-0.791-2.464 1.977-0.729 3.388-2.624 3.388-4.852 0-2.858-2.317-5.177-5.177-5.177-1.036 0-1.995 0.312-2.805 0.835-0.797-3.44-3.865-6.012-7.548-6.012-4.289 0-7.765 3.476-7.765 7.765 0 0.909 0.164 1.777 0.452 2.589h0.010c0.631 1.773 1.873 3.256 3.491 4.171l-0.037 0.037c-0.635 0.634-1.033 1.413-1.211 2.229-2.427-1.364-4.239-3.68-4.952-6.437-0.214-0.829-0.339-1.694-0.339-2.589 0-5.718 4.635-10.353 10.353-10.353 1.296 0 2.533 0.243 3.675 0.678 1.059-3.030 3.934-5.208 7.325-5.208 0.489 0 0.965 0.050 1.428 0.137-0.085 0.372-0.135 0.759-0.135 1.157 0 2.859 2.318 5.176 5.177 5.176 0.398 0 0.784-0.049 1.156-0.135 0.087 0.464 0.137 0.94 0.137 1.429-0.001 2.029-0.784 3.871-2.057 5.253zM21.529 2.724c-1.877 0.43-3.349 1.883-3.834 3.737 1.241 0.888 2.279 2.040 3.028 3.379 0.43-0.073 0.865-0.133 1.316-0.133 1.694 0 3.256 0.549 4.533 1.47 0.555-0.634 0.961-1.403 1.156-2.253-3.141-0.586-5.614-3.058-6.199-6.2zM11.039 22.138l1.373 1.373c0.758 0.758 0.758 1.987 0 2.745s-1.987 0.758-2.745 0c-0.758-0.758-0.758-1.987 0-2.745l1.373-1.373zM15.568 27.313l1.373 1.373c0.758 0.758 0.758 1.988 0 2.745-0.758 0.758-1.987 0.758-2.745 0-0.758-0.757-0.758-1.987 0-2.745l1.373-1.373zM20.097 22.138l1.373 1.373c0.758 0.758 0.758 1.987 0 2.745s-1.987 0.758-2.745 0c-0.758-0.758-0.758-1.987 0-2.745l1.373-1.373z"/>
        </symbol>
        <symbol id="CloudDrizzleAlt" viewBox="0 0 32 32">
            <title>
                CloudDrizzleAlt
            </title>
            <path d="M23.271 5.817c-0.506 0-0.996 0.067-1.479 0.149-1.99-3.558-5.79-5.966-10.157-5.966-6.426 0-11.636 5.209-11.636 11.635 0 4.358 2.4 8.151 5.947 10.144 0.201-0.918 0.649-1.793 1.362-2.506l0.041-0.041c-2.65-1.499-4.441-4.337-4.441-7.597 0-4.819 3.907-8.726 8.726-8.726 4.139 0 7.588 2.89 8.484 6.757 0.909-0.589 1.988-0.939 3.151-0.939 3.213 0 5.818 2.605 5.818 5.818 0 2.504-1.587 4.634-3.808 5.453 0.573 0.834 0.868 1.797 0.889 2.769 3.393-1.196 5.829-4.421 5.829-8.222-0.001-4.82-3.909-8.727-8.729-8.727zM10.908 19.788l-1.543 1.543c-0.852 0.852-0.852 2.233 0 3.085s2.234 0.852 3.085 0c0.852-0.852 0.852-2.233 0-3.085l-1.543-1.543zM16 25.605l-1.543 1.543c-0.852 0.852-0.852 2.234 0 3.085 0.852 0.852 2.233 0.852 3.085 0 0.852-0.851 0.852-2.233 0-3.085l-1.542-1.543zM21.090 19.788l-1.543 1.543c-0.852 0.852-0.852 2.233 0 3.085s2.233 0.852 3.085 0c0.852-0.852 0.852-2.233 0-3.085l-1.543-1.543z"/>
        </symbol>
        <symbol id="CloudDownload" viewBox="0 0 32 32">
            <title>
                CloudDownload
            </title>
            <path d="M23.273 25.94c-0.377 0-0.936 0-1.613 0l1.528-1.529c0.428-0.429 0.748-0.924 0.962-1.453 2.796-0.425 4.941-2.832 4.941-5.745 0-3.214-2.605-5.819-5.818-5.819-1.127 0-2.169 0.333-3.060 0.888-0.101-0.407-0.26-0.786-0.466-1.138-1.264-3.255-4.409-5.568-8.11-5.568-4.82 0-8.727 3.907-8.727 8.727 0 3.355 1.894 6.263 4.668 7.723 0.142 0.874 0.538 1.712 1.212 2.385l1.434 1.434c-5.759-0.698-10.223-5.594-10.223-11.542 0-6.426 5.209-11.636 11.636-11.636 4.367 0 8.168 2.409 10.158 5.967 0.483-0.083 0.972-0.149 1.479-0.149 4.82 0 8.727 3.907 8.727 8.728 0 4.818-3.907 8.726-8.727 8.726zM12.904 20.297l1.631 1.631v-8.603c0-0.803 0.651-1.454 1.454-1.454s1.455 0.651 1.455 1.454v8.603l1.631-1.631c0.567-0.568 1.49-0.568 2.057 0s0.567 1.489 0 2.057l-4.114 4.114c-0.567 0.568-1.489 0.568-2.057 0l-4.113-4.114c-0.568-0.568-0.568-1.489 0-2.057s1.488-0.568 2.056 0z"/>
        </symbol>
    </defs>
</svg>
